<svg width="1322" height="1023" viewBox="0 0 1322 1023" fill="none" xmlns="http://www.w3.org/2000/svg">
<g filter="url(#filter0_di_39_438)">
<ellipse cx="573.384" cy="548.502" rx="508.717" ry="464.34" fill="url(#paint0_linear_39_438)"/>
</g>
<path d="M175.325 982.37L198.351 982.368L202.624 893.855L175.32 894.33L175.325 982.37Z" fill="#FFB6B6"/>
<path d="M175.32 982.372L219.205 982.37H219.207C226.624 982.371 233.737 985.332 238.981 990.602C244.226 995.873 247.173 1003.02 247.173 1010.48V1011.39L175.322 1011.39L175.32 982.372Z" fill="#2F2E41"/>
<path d="M86.228 982.37L109.011 982.368L113.527 893.855L86.2231 894.33L86.228 982.37Z" fill="#FFB6B6"/>
<path d="M86.2231 982.372L130.107 982.37H130.109C137.526 982.371 144.639 985.332 149.884 990.602C155.129 995.873 158.075 1003.02 158.076 1010.48V1011.39L86.2245 1011.39L86.2231 982.372Z" fill="#2F2E41"/>
<path d="M32.5178 661.324C34.0512 659.177 35.1032 656.714 35.5999 654.109C36.0966 651.504 36.0257 648.82 35.3924 646.246C34.7591 643.672 33.5787 641.27 31.9344 639.21C30.29 637.151 28.2217 635.482 25.8752 634.324L33.3318 570.268L3.88405 585.302L1.31782 643.826C-0.334276 647.965 -0.436434 652.577 1.03073 656.788C2.4979 660.999 5.43246 664.516 9.2783 666.673C13.1241 668.83 17.6141 669.477 21.8973 668.491C26.1805 667.505 29.9593 664.955 32.5178 661.324Z" fill="#FFB6B6"/>
<path d="M189.045 596.387L204.762 605.957C204.762 605.957 217.533 614.312 213.238 672.43C208.944 730.548 203.812 963.394 203.812 963.394H175.953L130.834 685.246L114.37 966.409L85.045 964.901C85.045 964.901 25.1305 644.798 51.0555 610.058L189.045 596.387Z" fill="#2F2E41"/>
<path d="M43.053 396.542L44.1483 388.885C44.1483 388.885 14.2877 391.149 11.7617 420.632C9.23575 450.115 0 616.48 0 616.48L29.5365 622.507L58.9192 451.757L43.053 396.542Z" fill="#3348F2"/>
<path d="M148.057 347.389L58.5679 365.532C56.7267 365.903 54.8178 365.507 53.2598 364.431C51.7019 363.355 50.6222 361.686 50.2576 359.791L42.6621 320.078C39.9707 305.967 42.832 291.333 50.6169 279.394C58.4018 267.455 70.4731 259.188 84.1768 256.409C97.8805 253.631 112.095 256.569 123.695 264.578C135.295 272.587 143.332 285.011 146.037 299.119L153.633 338.833C153.993 340.729 153.608 342.694 152.563 344.298C151.518 345.902 149.897 347.014 148.057 347.389Z" fill="#2F2E41"/>
<path d="M105.623 354.059C126.655 354.059 143.705 336.194 143.705 314.155C143.705 292.117 126.655 274.251 105.623 274.251C84.5913 274.251 67.5414 292.117 67.5414 314.155C67.5414 336.194 84.5913 354.059 105.623 354.059Z" fill="#FFB6B6"/>
<path d="M158.076 300.083L104.155 310.906L102.077 303.126L100.837 311.572L92.5345 313.238L88.4174 297.818L85.9593 314.558L69.894 317.783L69.7443 317.008C67.6528 306.117 69.8849 294.825 75.9507 285.61C82.0165 276.394 91.4207 270.008 102.1 267.851L109.702 266.325C120.387 264.193 131.464 266.469 140.505 272.652C149.545 278.835 155.811 288.422 157.926 299.308L158.076 300.083Z" fill="#2F2E41"/>
<path d="M113.536 361.787C113.122 361.869 112.701 361.915 112.279 361.924L70.5932 362.766L57.4823 294.777L101.83 285.86L100.984 287.388C89.2162 308.651 106.413 335.836 117.712 350.148C118.543 351.196 119.068 352.462 119.225 353.8C119.383 355.139 119.167 356.496 118.603 357.715C118.134 358.754 117.43 359.665 116.549 360.373C115.669 361.081 114.636 361.565 113.536 361.787Z" fill="#2F2E41"/>
<path d="M41.6746 390.519C41.6746 390.519 118.071 365.172 179.709 388.804L174.663 511.508L212.684 607.222C212.684 607.222 91.8107 655.611 51.5299 614.945L63.2778 519.07L41.6746 390.519Z" fill="#3348F2"/>
<path d="M159.513 403.224L175.314 388.885C175.314 388.885 185.855 388.756 194.925 405.627C203.996 422.498 220.43 476.957 220.43 476.957L273.04 569.675L249.895 586.23L166.454 464.82L159.513 403.224Z" fill="#3348F2"/>
<g filter="url(#filter1_i_39_438)">
<rect x="247.173" y="365.668" width="908.218" height="471.596" rx="3" fill="white"/>
</g>
<line y1="-0.5" x2="312.098" y2="-0.5" transform="matrix(0.00221681 -0.999998 0.999997 0.00226025 346.33 756.123)" stroke="black"/>
<line x1="346.33" y1="755.623" x2="1098.65" y2="755.623" stroke="black"/>
<rect x="472.79" y="602.31" width="38.8004" height="153.813" fill="#FDC500"/>
<rect x="632.303" y="492.029" width="38.8004" height="264.094" fill="#FD8C00"/>
<rect x="793.253" y="561.68" width="38.8004" height="194.443" fill="#FF0000"/>
<path d="M303.251 645.016C302.822 645.016 302.49 644.881 302.257 644.61C302.024 644.33 301.907 643.91 301.907 643.35H302.747C302.878 643.462 303.027 643.574 303.195 643.686L303.251 643.602C302.831 643.322 302.504 642.963 302.271 642.524C302.028 642.085 301.907 641.6 301.907 641.068C301.907 640.592 302.014 640.172 302.229 639.808C302.444 639.444 302.738 639.164 303.111 638.968C303.484 638.763 303.904 638.66 304.371 638.66H308.095C308.468 638.66 308.739 638.805 308.907 639.094C309.075 639.383 309.159 639.822 309.159 640.41H304.623C304.268 640.41 303.979 640.517 303.755 640.732C303.531 640.937 303.419 641.241 303.419 641.642C303.419 642.118 303.568 642.51 303.867 642.818C304.156 643.126 304.52 643.28 304.959 643.28H308.095C308.468 643.28 308.739 643.42 308.907 643.7C309.075 643.98 309.159 644.419 309.159 645.016H303.251ZM307.801 630.898C308.24 630.898 308.576 631.038 308.809 631.318C309.042 631.589 309.159 632.004 309.159 632.564H308.319C308.179 632.443 308.025 632.331 307.857 632.228L307.801 632.312C308.706 632.909 309.159 633.712 309.159 634.72C309.159 635.196 309.052 635.625 308.837 636.008C308.613 636.381 308.305 636.68 307.913 636.904C307.521 637.119 307.078 637.226 306.583 637.226H302.971C302.588 637.226 302.318 637.086 302.159 636.806C301.991 636.517 301.907 636.078 301.907 635.49H306.457C306.821 635.49 307.11 635.378 307.325 635.154C307.54 634.93 307.647 634.608 307.647 634.188C307.647 633.721 307.502 633.348 307.213 633.068C306.914 632.779 306.546 632.634 306.107 632.634H302.971C302.588 632.634 302.318 632.494 302.159 632.214C301.991 631.934 301.907 631.495 301.907 630.898H307.801ZM303.251 629.252C302.822 629.252 302.49 629.117 302.257 628.846C302.024 628.576 301.907 628.165 301.907 627.614H302.747C302.952 627.782 303.102 627.894 303.195 627.95L303.251 627.852C302.812 627.563 302.481 627.255 302.257 626.928C302.024 626.602 301.907 626.214 301.907 625.766C301.907 624.954 302.304 624.394 303.097 624.086C302.724 623.853 302.434 623.554 302.229 623.19C302.014 622.826 301.907 622.416 301.907 621.958C301.907 621.324 302.14 620.82 302.607 620.446C303.064 620.064 303.652 619.872 304.371 619.872H308.095C308.468 619.872 308.739 620.017 308.907 620.306C309.075 620.586 309.159 621.016 309.159 621.594H304.511C304.166 621.594 303.89 621.674 303.685 621.832C303.48 621.982 303.377 622.215 303.377 622.532C303.377 622.868 303.494 623.153 303.727 623.386C303.951 623.61 304.306 623.722 304.791 623.722H308.095C308.468 623.722 308.739 623.862 308.907 624.142C309.075 624.413 309.159 624.838 309.159 625.416H304.511C304.156 625.416 303.881 625.491 303.685 625.64C303.48 625.79 303.377 626.023 303.377 626.34C303.377 626.732 303.512 627.031 303.783 627.236C304.044 627.432 304.404 627.53 304.861 627.53H308.095C308.468 627.53 308.739 627.675 308.907 627.964C309.075 628.244 309.159 628.674 309.159 629.252H303.251ZM300.283 618.315C299.91 618.315 299.62 618.17 299.415 617.881C299.21 617.582 299.107 617.139 299.107 616.551H302.355C302.458 616.682 302.551 616.784 302.635 616.859L302.705 616.803C302.462 616.551 302.271 616.224 302.131 615.823C301.982 615.412 301.907 615.034 301.907 614.689C301.907 613.858 302.14 613.196 302.607 612.701C303.064 612.206 303.666 611.959 304.413 611.959H306.639C307.124 611.959 307.558 612.08 307.941 612.323C308.324 612.566 308.622 612.892 308.837 613.303C309.052 613.714 309.159 614.152 309.159 614.619C309.159 615.114 309.061 615.548 308.865 615.921C308.66 616.285 308.361 616.616 307.969 616.915L308.025 616.971C308.09 616.934 308.156 616.887 308.221 616.831C308.286 616.775 308.338 616.733 308.375 616.705C308.636 616.705 308.832 616.831 308.963 617.083C309.094 617.335 309.159 617.746 309.159 618.315H300.283ZM307.647 615.137C307.647 614.67 307.554 614.316 307.367 614.073C307.171 613.821 306.886 613.695 306.513 613.695H304.525C304.17 613.695 303.9 613.821 303.713 614.073C303.517 614.325 303.419 614.68 303.419 615.137C303.419 615.548 303.522 615.893 303.727 616.173C303.932 616.444 304.18 616.579 304.469 616.579H306.583C306.891 616.579 307.148 616.444 307.353 616.173C307.549 615.902 307.647 615.557 307.647 615.137ZM309.159 607.347C309.159 607.926 309.047 608.453 308.823 608.929C308.59 609.405 308.277 609.783 307.885 610.063C307.484 610.343 307.036 610.483 306.541 610.483H304.679C304.156 610.483 303.685 610.338 303.265 610.049C302.845 609.76 302.514 609.377 302.271 608.901C302.028 608.416 301.907 607.893 301.907 607.333C301.907 606.782 302.024 606.278 302.257 605.821C302.481 605.354 302.798 604.986 303.209 604.715C303.61 604.444 304.072 604.309 304.595 604.309H305.379C305.584 604.309 305.757 604.388 305.897 604.547C306.037 604.696 306.107 604.888 306.107 605.121V608.789H306.415C306.816 608.789 307.143 608.668 307.395 608.425C307.647 608.182 307.773 607.818 307.773 607.333C307.773 606.866 307.67 606.521 307.465 606.297C307.26 606.064 306.994 605.947 306.667 605.947C306.648 605.779 306.639 605.662 306.639 605.597C306.639 605.252 306.718 604.981 306.877 604.785C307.026 604.589 307.241 604.491 307.521 604.491C307.792 604.491 308.053 604.617 308.305 604.869C308.557 605.121 308.762 605.466 308.921 605.905C309.08 606.344 309.159 606.824 309.159 607.347ZM304.861 605.891H304.595C304.203 605.891 303.886 606.026 303.643 606.297C303.4 606.568 303.279 606.918 303.279 607.347C303.279 607.776 303.4 608.126 303.643 608.397C303.876 608.658 304.194 608.789 304.595 608.789H304.861V605.891ZM303.419 599.363C303.419 599.914 303.568 600.362 303.867 600.707C304.156 601.053 304.52 601.225 304.959 601.225H308.095C308.468 601.225 308.739 601.365 308.907 601.645C309.075 601.925 309.159 602.364 309.159 602.961H303.251C302.822 602.961 302.49 602.826 302.257 602.555C302.024 602.275 301.907 601.855 301.907 601.295H302.733C302.892 601.435 303.046 601.547 303.195 601.631L303.251 601.547C302.355 600.959 301.907 600.222 301.907 599.335C301.907 598.934 302.014 598.631 302.229 598.425C302.434 598.22 302.696 598.117 303.013 598.117C303.256 598.117 303.461 598.183 303.629 598.313C303.489 598.565 303.419 598.915 303.419 599.363Z" fill="black"/>
<path d="M437.69 772.205C437.69 771.776 437.858 771.435 438.194 771.183C438.53 770.922 438.987 770.791 439.566 770.791L442.506 778.183L442.184 779.065L442.324 779.121L445.474 770.805C446.043 770.805 446.496 770.936 446.832 771.197C447.177 771.449 447.35 771.79 447.35 772.219V780.857C446.127 780.857 445.516 780.4 445.516 779.485V775.005L445.992 773.717L445.838 773.661L443.276 780.353C443.211 780.503 443.108 780.624 442.968 780.717C442.837 780.811 442.688 780.857 442.52 780.857C442.352 780.857 442.198 780.811 442.058 780.717C441.927 780.624 441.829 780.498 441.764 780.339L439.202 773.647L439.048 773.703L439.51 774.991V779.485C439.51 780.4 438.903 780.857 437.69 780.857V772.205ZM452.049 780.857C451.47 780.857 450.943 780.745 450.467 780.521C449.991 780.288 449.613 779.975 449.333 779.583C449.053 779.182 448.913 778.734 448.913 778.239V776.377C448.913 775.855 449.057 775.383 449.347 774.963C449.636 774.543 450.019 774.212 450.495 773.969C450.98 773.727 451.503 773.605 452.063 773.605C452.613 773.605 453.117 773.722 453.575 773.955C454.041 774.179 454.41 774.497 454.681 774.907C454.951 775.309 455.087 775.771 455.087 776.293V777.077C455.087 777.283 455.007 777.455 454.849 777.595C454.699 777.735 454.508 777.805 454.275 777.805H450.607V778.113C450.607 778.515 450.728 778.841 450.971 779.093C451.213 779.345 451.577 779.471 452.063 779.471C452.529 779.471 452.875 779.369 453.099 779.163C453.332 778.958 453.449 778.692 453.449 778.365C453.617 778.347 453.733 778.337 453.799 778.337C454.144 778.337 454.415 778.417 454.611 778.575C454.807 778.725 454.905 778.939 454.905 779.219C454.905 779.49 454.779 779.751 454.527 780.003C454.275 780.255 453.929 780.461 453.491 780.619C453.052 780.778 452.571 780.857 452.049 780.857ZM453.505 776.559V776.293C453.505 775.901 453.369 775.584 453.099 775.341C452.828 775.099 452.478 774.977 452.049 774.977C451.619 774.977 451.269 775.099 450.999 775.341C450.737 775.575 450.607 775.892 450.607 776.293V776.559H453.505ZM459.01 780.857C458.506 780.857 458.054 780.75 457.652 780.535C457.251 780.321 456.934 780.027 456.7 779.653C456.467 779.271 456.35 778.832 456.35 778.337V776.125C456.35 775.64 456.472 775.206 456.714 774.823C456.957 774.441 457.293 774.142 457.722 773.927C458.161 773.713 458.646 773.605 459.178 773.605C459.524 773.605 459.878 773.68 460.242 773.829C460.616 773.969 460.928 774.161 461.18 774.403L461.236 774.333C461.19 774.259 461.087 774.165 460.928 774.053V771.981C460.928 771.608 461.073 771.319 461.362 771.113C461.661 770.908 462.109 770.805 462.706 770.805V779.653C462.706 779.999 462.576 780.288 462.314 780.521C462.053 780.745 461.647 780.857 461.096 780.857V780.087C461.218 779.938 461.306 779.817 461.362 779.723L461.292 779.667C461.003 780.059 460.681 780.358 460.326 780.563C459.981 780.759 459.542 780.857 459.01 780.857ZM459.528 779.345C459.948 779.345 460.289 779.247 460.55 779.051C460.821 778.846 460.956 778.589 460.956 778.281V776.167C460.956 775.869 460.821 775.621 460.55 775.425C460.289 775.22 459.944 775.117 459.514 775.117C459.057 775.117 458.702 775.215 458.45 775.411C458.208 775.598 458.086 775.869 458.086 776.223V778.211C458.086 778.585 458.208 778.869 458.45 779.065C458.702 779.252 459.062 779.345 459.528 779.345ZM465.512 772.947C465.176 772.947 464.896 772.849 464.672 772.653C464.458 772.448 464.35 772.187 464.35 771.869C464.35 771.561 464.458 771.309 464.672 771.113C464.896 770.908 465.176 770.805 465.512 770.805C465.848 770.805 466.124 770.908 466.338 771.113C466.562 771.309 466.674 771.561 466.674 771.869C466.674 772.187 466.562 772.448 466.338 772.653C466.124 772.849 465.848 772.947 465.512 772.947ZM464.63 774.669C464.63 774.287 464.775 774.016 465.064 773.857C465.354 773.689 465.792 773.605 466.38 773.605V779.793C466.38 780.167 466.236 780.437 465.946 780.605C465.657 780.773 465.218 780.857 464.63 780.857V774.669ZM474.531 779.499C474.531 779.938 474.391 780.274 474.111 780.507C473.84 780.741 473.425 780.857 472.865 780.857V780.017C472.986 779.877 473.098 779.723 473.201 779.555L473.117 779.499C472.519 780.405 471.717 780.857 470.709 780.857C470.233 780.857 469.803 780.75 469.421 780.535C469.047 780.311 468.749 780.003 468.525 779.611C468.31 779.219 468.203 778.776 468.203 778.281V774.669C468.203 774.287 468.343 774.016 468.623 773.857C468.912 773.689 469.351 773.605 469.939 773.605V778.155C469.939 778.519 470.051 778.809 470.275 779.023C470.499 779.238 470.821 779.345 471.241 779.345C471.707 779.345 472.081 779.201 472.361 778.911C472.65 778.613 472.795 778.244 472.795 777.805V774.669C472.795 774.287 472.935 774.016 473.215 773.857C473.495 773.689 473.933 773.605 474.531 773.605V779.499ZM476.176 774.949C476.176 774.52 476.312 774.189 476.582 773.955C476.853 773.722 477.264 773.605 477.814 773.605V774.445C477.646 774.651 477.534 774.8 477.478 774.893L477.576 774.949C477.866 774.511 478.174 774.179 478.5 773.955C478.827 773.722 479.214 773.605 479.662 773.605C480.474 773.605 481.034 774.002 481.342 774.795C481.576 774.422 481.874 774.133 482.238 773.927C482.602 773.713 483.013 773.605 483.47 773.605C484.105 773.605 484.609 773.839 484.982 774.305C485.365 774.763 485.556 775.351 485.556 776.069V779.793C485.556 780.167 485.412 780.437 485.122 780.605C484.842 780.773 484.413 780.857 483.834 780.857V776.209C483.834 775.864 483.755 775.589 483.596 775.383C483.447 775.178 483.214 775.075 482.896 775.075C482.56 775.075 482.276 775.192 482.042 775.425C481.818 775.649 481.706 776.004 481.706 776.489V779.793C481.706 780.167 481.566 780.437 481.286 780.605C481.016 780.773 480.591 780.857 480.012 780.857V776.209C480.012 775.855 479.938 775.579 479.788 775.383C479.639 775.178 479.406 775.075 479.088 775.075C478.696 775.075 478.398 775.211 478.192 775.481C477.996 775.743 477.898 776.102 477.898 776.559V779.793C477.898 780.167 477.754 780.437 477.464 780.605C477.184 780.773 476.755 780.857 476.176 780.857V774.949Z" fill="black"/>
<path d="M620.196 772.191C620.196 771.743 620.355 771.403 620.672 771.169C620.989 770.927 621.456 770.805 622.072 770.805V774.977H626.258V772.191C626.258 771.734 626.417 771.389 626.734 771.155C627.061 770.922 627.527 770.805 628.134 770.805V779.471C628.134 779.919 627.971 780.265 627.644 780.507C627.327 780.741 626.865 780.857 626.258 780.857V776.601H622.072V779.471C622.072 779.919 621.909 780.265 621.582 780.507C621.265 780.741 620.803 780.857 620.196 780.857V772.191ZM630.942 772.947C630.606 772.947 630.326 772.849 630.102 772.653C629.887 772.448 629.78 772.187 629.78 771.869C629.78 771.561 629.887 771.309 630.102 771.113C630.326 770.908 630.606 770.805 630.942 770.805C631.278 770.805 631.553 770.908 631.768 771.113C631.992 771.309 632.104 771.561 632.104 771.869C632.104 772.187 631.992 772.448 631.768 772.653C631.553 772.849 631.278 772.947 630.942 772.947ZM630.06 774.669C630.06 774.287 630.205 774.016 630.494 773.857C630.783 773.689 631.222 773.605 631.81 773.605V779.793C631.81 780.167 631.665 780.437 631.376 780.605C631.087 780.773 630.648 780.857 630.06 780.857V774.669ZM636.642 783.657C636.092 783.657 635.602 783.578 635.172 783.419C634.743 783.27 634.407 783.065 634.164 782.803C633.922 782.542 633.8 782.253 633.8 781.935C633.8 781.618 633.908 781.394 634.122 781.263C634.346 781.133 634.659 781.067 635.06 781.067C635.098 781.45 635.247 781.744 635.508 781.949C635.77 782.164 636.148 782.271 636.642 782.271C637.193 782.271 637.58 782.136 637.804 781.865C638.038 781.595 638.154 781.221 638.154 780.745V780.269C638.294 780.167 638.397 780.069 638.462 779.975L638.406 779.905C638.164 780.148 637.837 780.344 637.426 780.493C637.025 780.643 636.647 780.717 636.292 780.717C635.77 780.717 635.303 780.615 634.892 780.409C634.482 780.195 634.155 779.896 633.912 779.513C633.679 779.131 633.562 778.697 633.562 778.211V776.125C633.562 775.659 633.684 775.234 633.926 774.851C634.178 774.459 634.505 774.156 634.906 773.941C635.317 773.717 635.756 773.605 636.222 773.605C636.736 773.605 637.17 773.708 637.524 773.913C637.888 774.119 638.22 774.413 638.518 774.795L638.574 774.739C638.528 774.655 638.439 774.534 638.308 774.375C638.308 773.862 638.845 773.605 639.918 773.605V780.493C639.918 781.109 639.778 781.655 639.498 782.131C639.218 782.607 638.826 782.981 638.322 783.251C637.828 783.522 637.268 783.657 636.642 783.657ZM636.74 779.219C637.151 779.219 637.496 779.117 637.776 778.911C638.056 778.697 638.196 778.445 638.196 778.155V776.167C638.196 775.869 638.056 775.617 637.776 775.411C637.506 775.206 637.16 775.103 636.74 775.103C636.283 775.103 635.928 775.201 635.676 775.397C635.434 775.593 635.312 775.873 635.312 776.237V778.085C635.312 778.44 635.434 778.72 635.676 778.925C635.919 779.121 636.274 779.219 636.74 779.219ZM641.51 772.149C641.51 771.72 641.66 771.389 641.958 771.155C642.257 770.922 642.686 770.805 643.246 770.805V774.445C643.125 774.576 643.013 774.725 642.91 774.893L642.994 774.949C643.638 774.053 644.46 773.605 645.458 773.605C645.934 773.605 646.354 773.713 646.718 773.927C647.082 774.142 647.362 774.436 647.558 774.809C647.764 775.183 647.866 775.603 647.866 776.069V779.793C647.866 780.167 647.722 780.437 647.432 780.605C647.143 780.773 646.704 780.857 646.116 780.857V776.321C646.116 775.967 646.009 775.677 645.794 775.453C645.589 775.229 645.286 775.117 644.884 775.117C644.408 775.117 644.016 775.267 643.708 775.565C643.4 775.855 643.246 776.219 643.246 776.657V779.793C643.246 780.167 643.102 780.437 642.812 780.605C642.523 780.773 642.089 780.857 641.51 780.857V772.149Z" fill="black"/>
<path d="M765.059 780.857C764.228 780.857 763.486 780.699 762.833 780.381C762.189 780.064 761.685 779.621 761.321 779.051C760.957 778.482 760.775 777.833 760.775 777.105V774.529C760.775 773.801 760.952 773.157 761.307 772.597C761.671 772.028 762.17 771.589 762.805 771.281C763.44 770.964 764.168 770.805 764.989 770.805C765.81 770.805 766.538 770.931 767.173 771.183C767.817 771.426 768.316 771.771 768.671 772.219C769.026 772.658 769.203 773.162 769.203 773.731C769.203 774.077 769.086 774.352 768.853 774.557C768.629 774.753 768.326 774.851 767.943 774.851C767.756 774.851 767.551 774.823 767.327 774.767C767.346 774.543 767.355 774.324 767.355 774.109C767.355 773.615 767.136 773.213 766.697 772.905C766.258 772.597 765.689 772.443 764.989 772.443C764.298 772.443 763.734 772.639 763.295 773.031C762.866 773.414 762.651 773.913 762.651 774.529V777.105C762.651 777.731 762.875 778.239 763.323 778.631C763.771 779.023 764.35 779.219 765.059 779.219C765.759 779.219 766.328 779.065 766.767 778.757C767.206 778.449 767.425 778.053 767.425 777.567C767.425 777.343 767.416 777.129 767.397 776.923C767.63 776.877 767.826 776.853 767.985 776.853C768.377 776.853 768.69 776.956 768.923 777.161C769.156 777.367 769.273 777.647 769.273 778.001C769.273 778.552 769.096 779.047 768.741 779.485C768.386 779.915 767.887 780.251 767.243 780.493C766.608 780.736 765.88 780.857 765.059 780.857ZM774.223 775.117C773.672 775.117 773.224 775.267 772.879 775.565C772.533 775.855 772.361 776.219 772.361 776.657V779.793C772.361 780.167 772.221 780.437 771.941 780.605C771.661 780.773 771.222 780.857 770.625 780.857V774.949C770.625 774.52 770.76 774.189 771.031 773.955C771.311 773.722 771.731 773.605 772.291 773.605V774.431C772.151 774.59 772.039 774.744 771.955 774.893L772.039 774.949C772.627 774.053 773.364 773.605 774.251 773.605C774.652 773.605 774.955 773.713 775.161 773.927C775.366 774.133 775.469 774.394 775.469 774.711C775.469 774.954 775.403 775.159 775.273 775.327C775.021 775.187 774.671 775.117 774.223 775.117ZM777.474 772.947C777.138 772.947 776.858 772.849 776.634 772.653C776.42 772.448 776.312 772.187 776.312 771.869C776.312 771.561 776.42 771.309 776.634 771.113C776.858 770.908 777.138 770.805 777.474 770.805C777.81 770.805 778.086 770.908 778.3 771.113C778.524 771.309 778.636 771.561 778.636 771.869C778.636 772.187 778.524 772.448 778.3 772.653C778.086 772.849 777.81 772.947 777.474 772.947ZM776.592 774.669C776.592 774.287 776.737 774.016 777.026 773.857C777.316 773.689 777.754 773.605 778.342 773.605V779.793C778.342 780.167 778.198 780.437 777.908 780.605C777.619 780.773 777.18 780.857 776.592 780.857V774.669ZM783.144 780.857C782.388 780.857 781.828 780.638 781.464 780.199C781.1 779.761 780.918 779.196 780.918 778.505V775.033H779.476C779.476 774.595 779.56 774.268 779.728 774.053C779.896 773.839 780.12 773.731 780.4 773.731H780.946V772.569C780.946 772.187 781.086 771.916 781.366 771.757C781.646 771.589 782.071 771.505 782.64 771.505V773.731H784.502C784.502 774.198 784.414 774.534 784.236 774.739C784.059 774.935 783.774 775.033 783.382 775.033H782.668V778.435C782.668 778.762 782.729 778.995 782.85 779.135C782.981 779.275 783.2 779.345 783.508 779.345C783.835 779.345 784.162 779.257 784.488 779.079C784.582 779.163 784.656 779.271 784.712 779.401C784.768 779.523 784.796 779.649 784.796 779.779C784.796 780.059 784.652 780.311 784.362 780.535C784.073 780.75 783.667 780.857 783.144 780.857ZM787.277 772.947C786.941 772.947 786.661 772.849 786.437 772.653C786.222 772.448 786.115 772.187 786.115 771.869C786.115 771.561 786.222 771.309 786.437 771.113C786.661 770.908 786.941 770.805 787.277 770.805C787.613 770.805 787.888 770.908 788.103 771.113C788.327 771.309 788.439 771.561 788.439 771.869C788.439 772.187 788.327 772.448 788.103 772.653C787.888 772.849 787.613 772.947 787.277 772.947ZM786.395 774.669C786.395 774.287 786.54 774.016 786.829 773.857C787.118 773.689 787.557 773.605 788.145 773.605V779.793C788.145 780.167 788 780.437 787.711 780.605C787.422 780.773 786.983 780.857 786.395 780.857V774.669ZM793.103 780.857C792.497 780.857 791.96 780.75 791.493 780.535C791.027 780.311 790.663 780.003 790.401 779.611C790.14 779.219 790.009 778.776 790.009 778.281V776.321C790.009 775.789 790.14 775.318 790.401 774.907C790.663 774.497 791.027 774.179 791.493 773.955C791.96 773.722 792.492 773.605 793.089 773.605C793.649 773.605 794.144 773.685 794.573 773.843C795.012 774.002 795.353 774.226 795.595 774.515C795.838 774.795 795.959 775.122 795.959 775.495C795.959 775.785 795.847 776.018 795.623 776.195C795.399 776.373 795.105 776.461 794.741 776.461C794.639 776.461 794.564 776.457 794.517 776.447C794.517 776.046 794.387 775.724 794.125 775.481C793.873 775.239 793.542 775.117 793.131 775.117C792.721 775.117 792.385 775.234 792.123 775.467C791.871 775.701 791.745 776.009 791.745 776.391V778.155C791.745 778.51 791.876 778.799 792.137 779.023C792.399 779.238 792.735 779.345 793.145 779.345C793.556 779.345 793.892 779.224 794.153 778.981C794.415 778.729 794.545 778.412 794.545 778.029C794.601 778.02 794.681 778.015 794.783 778.015C795.147 778.015 795.441 778.099 795.665 778.267C795.889 778.435 796.001 778.664 796.001 778.953C796.001 779.327 795.875 779.658 795.623 779.947C795.381 780.227 795.04 780.451 794.601 780.619C794.163 780.778 793.663 780.857 793.103 780.857ZM799.458 780.857C798.982 780.857 798.544 780.764 798.142 780.577C797.75 780.391 797.433 780.125 797.19 779.779C796.957 779.425 796.84 779.005 796.84 778.519C796.84 778.034 796.966 777.614 797.218 777.259C797.47 776.895 797.811 776.62 798.24 776.433C798.679 776.237 799.16 776.139 799.682 776.139C800.112 776.139 800.494 776.209 800.83 776.349C801.176 776.48 801.493 776.681 801.782 776.951L801.852 776.881C801.768 776.797 801.624 776.671 801.418 776.503V776.223C801.418 775.841 801.283 775.537 801.012 775.313C800.742 775.089 800.364 774.977 799.878 774.977C799.01 774.977 798.371 775.295 797.96 775.929C797.755 775.864 797.582 775.761 797.442 775.621C797.302 775.472 797.232 775.313 797.232 775.145C797.232 774.865 797.358 774.609 797.61 774.375C797.862 774.142 798.203 773.955 798.632 773.815C799.062 773.675 799.528 773.605 800.032 773.605C801.022 773.605 801.787 773.839 802.328 774.305C802.87 774.763 803.14 775.388 803.14 776.181V779.681C803.14 780.092 803.01 780.391 802.748 780.577C802.487 780.764 802.076 780.857 801.516 780.857V780.283C801.675 780.125 801.782 780.008 801.838 779.933L801.782 779.863C801.474 780.19 801.143 780.437 800.788 780.605C800.443 780.773 800 780.857 799.458 780.857ZM799.906 779.583C800.392 779.583 800.77 779.49 801.04 779.303C801.311 779.117 801.446 778.851 801.446 778.505C801.446 778.169 801.306 777.903 801.026 777.707C800.756 777.511 800.387 777.413 799.92 777.413C799.491 777.413 799.15 777.511 798.898 777.707C798.656 777.894 798.534 778.16 798.534 778.505C798.534 778.86 798.656 779.131 798.898 779.317C799.141 779.495 799.477 779.583 799.906 779.583ZM807.005 780.857C806.23 780.857 805.642 780.638 805.241 780.199C804.849 779.751 804.653 779.187 804.653 778.505V771.869C804.653 771.487 804.793 771.216 805.073 771.057C805.362 770.889 805.805 770.805 806.403 770.805V778.435C806.403 778.753 806.473 778.986 806.613 779.135C806.753 779.275 806.977 779.345 807.285 779.345C807.63 779.345 807.975 779.257 808.321 779.079C808.414 779.163 808.484 779.271 808.531 779.401C808.587 779.523 808.615 779.649 808.615 779.779C808.615 780.059 808.475 780.311 808.195 780.535C807.915 780.75 807.518 780.857 807.005 780.857Z" fill="black"/>
<path d="M295.665 403.911H290.845C290.845 402.365 291.545 401.591 292.945 401.591H303.165C303.165 403.138 302.458 403.911 301.045 403.911H298.345V413.791C298.345 414.431 298.118 414.925 297.665 415.271C297.211 415.605 296.545 415.771 295.665 415.771V403.911ZM306.27 415.771C305.403 415.771 304.616 415.618 303.91 415.311C303.216 414.991 302.67 414.551 302.27 413.991C301.87 413.431 301.67 412.798 301.67 412.091V409.271C301.67 408.551 301.863 407.898 302.25 407.311C302.65 406.725 303.196 406.265 303.89 405.931C304.583 405.585 305.376 405.411 306.27 405.411C307.163 405.411 307.956 405.585 308.65 405.931C309.356 406.265 309.903 406.725 310.29 407.311C310.69 407.898 310.89 408.551 310.89 409.271V412.091C310.89 412.798 310.683 413.431 310.27 413.991C309.87 414.551 309.316 414.991 308.61 415.311C307.916 415.618 307.136 415.771 306.27 415.771ZM306.27 413.631C306.936 413.631 307.456 413.478 307.83 413.171C308.216 412.865 308.41 412.451 308.41 411.931V409.391C308.41 408.845 308.216 408.405 307.83 408.071C307.456 407.725 306.936 407.551 306.27 407.551C305.616 407.551 305.096 407.725 304.71 408.071C304.323 408.405 304.13 408.845 304.13 409.391V411.931C304.13 412.451 304.323 412.865 304.71 413.171C305.096 413.478 305.616 413.631 306.27 413.631ZM316.791 415.771C315.711 415.771 314.911 415.458 314.391 414.831C313.871 414.205 313.611 413.398 313.611 412.411V407.451H311.551C311.551 406.825 311.671 406.358 311.911 406.051C312.151 405.745 312.471 405.591 312.871 405.591H313.651V403.931C313.651 403.385 313.851 402.998 314.251 402.771C314.651 402.531 315.258 402.411 316.071 402.411V405.591H318.731C318.731 406.258 318.604 406.738 318.351 407.031C318.098 407.311 317.691 407.451 317.131 407.451H316.111V412.311C316.111 412.778 316.198 413.111 316.371 413.311C316.558 413.511 316.871 413.611 317.311 413.611C317.778 413.611 318.244 413.485 318.711 413.231C318.844 413.351 318.951 413.505 319.031 413.691C319.111 413.865 319.151 414.045 319.151 414.231C319.151 414.631 318.944 414.991 318.531 415.311C318.118 415.618 317.538 415.771 316.791 415.771ZM323.75 415.771C323.07 415.771 322.443 415.638 321.87 415.371C321.31 415.105 320.856 414.725 320.51 414.231C320.176 413.725 320.01 413.125 320.01 412.431C320.01 411.738 320.19 411.138 320.55 410.631C320.91 410.111 321.396 409.718 322.01 409.451C322.636 409.171 323.323 409.031 324.07 409.031C324.683 409.031 325.23 409.131 325.71 409.331C326.203 409.518 326.656 409.805 327.07 410.191L327.17 410.091C327.05 409.971 326.843 409.791 326.55 409.551V409.151C326.55 408.605 326.356 408.171 325.97 407.851C325.583 407.531 325.043 407.371 324.35 407.371C323.11 407.371 322.196 407.825 321.61 408.731C321.316 408.638 321.07 408.491 320.87 408.291C320.67 408.078 320.57 407.851 320.57 407.611C320.57 407.211 320.75 406.845 321.11 406.511C321.47 406.178 321.956 405.911 322.57 405.711C323.183 405.511 323.85 405.411 324.57 405.411C325.983 405.411 327.076 405.745 327.85 406.411C328.623 407.065 329.01 407.958 329.01 409.091V414.091C329.01 414.678 328.823 415.105 328.45 415.371C328.076 415.638 327.49 415.771 326.69 415.771V414.951C326.916 414.725 327.07 414.558 327.15 414.451L327.07 414.351C326.63 414.818 326.156 415.171 325.65 415.411C325.156 415.651 324.523 415.771 323.75 415.771ZM324.39 413.951C325.083 413.951 325.623 413.818 326.01 413.551C326.396 413.285 326.59 412.905 326.59 412.411C326.59 411.931 326.39 411.551 325.99 411.271C325.603 410.991 325.076 410.851 324.41 410.851C323.796 410.851 323.31 410.991 322.95 411.271C322.603 411.538 322.43 411.918 322.43 412.411C322.43 412.918 322.603 413.305 322.95 413.571C323.296 413.825 323.776 413.951 324.39 413.951ZM334.53 415.771C333.423 415.771 332.583 415.458 332.01 414.831C331.45 414.191 331.17 413.385 331.17 412.411V402.931C331.17 402.385 331.37 401.998 331.77 401.771C332.183 401.531 332.816 401.411 333.67 401.411V412.311C333.67 412.765 333.77 413.098 333.97 413.311C334.17 413.511 334.49 413.611 334.93 413.611C335.423 413.611 335.916 413.485 336.41 413.231C336.543 413.351 336.643 413.505 336.71 413.691C336.79 413.865 336.83 414.045 336.83 414.231C336.83 414.631 336.63 414.991 336.23 415.311C335.83 415.618 335.263 415.771 334.53 415.771ZM348.211 415.771C347.891 415.771 347.611 415.698 347.371 415.551C347.144 415.405 346.984 415.205 346.891 414.951L343.291 405.611C343.384 405.558 343.544 405.511 343.771 405.471C344.011 405.431 344.204 405.411 344.351 405.411C344.737 405.411 345.084 405.491 345.391 405.651C345.711 405.811 345.924 406.045 346.031 406.351L348.091 412.591L347.751 413.531L347.911 413.571L350.391 406.351C350.497 406.045 350.704 405.811 351.011 405.651C351.331 405.491 351.684 405.411 352.071 405.411C352.217 405.411 352.404 405.431 352.631 405.471C352.871 405.511 353.037 405.558 353.131 405.611L349.531 414.951C349.437 415.205 349.271 415.405 349.031 415.551C348.804 415.698 348.531 415.771 348.211 415.771ZM363.43 413.831C363.43 414.458 363.23 414.938 362.83 415.271C362.443 415.605 361.85 415.771 361.05 415.771V414.571C361.223 414.371 361.383 414.151 361.53 413.911L361.41 413.831C360.557 415.125 359.41 415.771 357.97 415.771C357.29 415.771 356.677 415.618 356.13 415.311C355.597 414.991 355.17 414.551 354.85 413.991C354.543 413.431 354.39 412.798 354.39 412.091V406.931C354.39 406.385 354.59 405.998 354.99 405.771C355.403 405.531 356.03 405.411 356.87 405.411V411.911C356.87 412.431 357.03 412.845 357.35 413.151C357.67 413.458 358.13 413.611 358.73 413.611C359.397 413.611 359.93 413.405 360.33 412.991C360.743 412.565 360.95 412.038 360.95 411.411V406.931C360.95 406.385 361.15 405.998 361.55 405.771C361.95 405.531 362.577 405.411 363.43 405.411V413.831ZM365.781 407.331C365.781 406.718 365.974 406.245 366.361 405.911C366.761 405.578 367.361 405.411 368.161 405.411V406.611C368.001 406.798 367.841 407.011 367.681 407.251L367.801 407.331C368.201 406.731 368.714 406.265 369.341 405.931C369.968 405.585 370.661 405.411 371.421 405.411C372.101 405.411 372.701 405.565 373.221 405.871C373.741 406.178 374.141 406.598 374.421 407.131C374.714 407.665 374.861 408.265 374.861 408.931V414.251C374.861 414.785 374.654 415.171 374.241 415.411C373.828 415.651 373.201 415.771 372.361 415.771V409.291C372.361 408.785 372.208 408.371 371.901 408.051C371.608 407.731 371.174 407.571 370.601 407.571C369.921 407.571 369.361 407.785 368.921 408.211C368.481 408.625 368.261 409.145 368.261 409.771V414.251C368.261 414.785 368.061 415.171 367.661 415.411C367.261 415.651 366.634 415.771 365.781 415.771V407.331ZM381.45 415.771C380.623 415.771 379.87 415.611 379.19 415.291C378.51 414.958 377.97 414.511 377.57 413.951C377.17 413.378 376.97 412.738 376.97 412.031V409.371C376.97 408.625 377.176 407.951 377.59 407.351C378.003 406.751 378.55 406.278 379.23 405.931C379.923 405.585 380.67 405.411 381.47 405.411C382.256 405.411 382.976 405.578 383.63 405.911C384.296 406.231 384.823 406.685 385.21 407.271C385.596 407.845 385.79 408.505 385.79 409.251V410.371C385.79 410.665 385.676 410.911 385.45 411.111C385.236 411.311 384.963 411.411 384.63 411.411H379.39V411.851C379.39 412.425 379.563 412.891 379.91 413.251C380.256 413.611 380.776 413.791 381.47 413.791C382.136 413.791 382.63 413.645 382.95 413.351C383.283 413.058 383.45 412.678 383.45 412.211C383.69 412.185 383.856 412.171 383.95 412.171C384.443 412.171 384.83 412.285 385.11 412.511C385.39 412.725 385.53 413.031 385.53 413.431C385.53 413.818 385.35 414.191 384.99 414.551C384.63 414.911 384.136 415.205 383.51 415.431C382.883 415.658 382.196 415.771 381.45 415.771ZM383.53 409.631V409.251C383.53 408.691 383.336 408.238 382.95 407.891C382.563 407.545 382.063 407.371 381.45 407.371C380.836 407.371 380.336 407.545 379.95 407.891C379.576 408.225 379.39 408.678 379.39 409.251V409.631H383.53ZM392.855 407.571C392.068 407.571 391.428 407.785 390.935 408.211C390.441 408.625 390.195 409.145 390.195 409.771V414.251C390.195 414.785 389.995 415.171 389.595 415.411C389.195 415.651 388.568 415.771 387.715 415.771V407.331C387.715 406.718 387.908 406.245 388.295 405.911C388.695 405.578 389.295 405.411 390.095 405.411V406.591C389.895 406.818 389.735 407.038 389.615 407.251L389.735 407.331C390.575 406.051 391.628 405.411 392.895 405.411C393.468 405.411 393.901 405.565 394.195 405.871C394.488 406.165 394.635 406.538 394.635 406.991C394.635 407.338 394.541 407.631 394.355 407.871C393.995 407.671 393.495 407.571 392.855 407.571ZM398.769 415.771C398.089 415.771 397.462 415.638 396.889 415.371C396.329 415.105 395.876 414.725 395.529 414.231C395.196 413.725 395.029 413.125 395.029 412.431C395.029 411.738 395.209 411.138 395.569 410.631C395.929 410.111 396.416 409.718 397.029 409.451C397.656 409.171 398.342 409.031 399.089 409.031C399.702 409.031 400.249 409.131 400.729 409.331C401.222 409.518 401.676 409.805 402.089 410.191L402.189 410.091C402.069 409.971 401.862 409.791 401.569 409.551V409.151C401.569 408.605 401.376 408.171 400.989 407.851C400.602 407.531 400.062 407.371 399.369 407.371C398.129 407.371 397.216 407.825 396.629 408.731C396.336 408.638 396.089 408.491 395.889 408.291C395.689 408.078 395.589 407.851 395.589 407.611C395.589 407.211 395.769 406.845 396.129 406.511C396.489 406.178 396.976 405.911 397.589 405.711C398.202 405.511 398.869 405.411 399.589 405.411C401.002 405.411 402.096 405.745 402.869 406.411C403.642 407.065 404.029 407.958 404.029 409.091V414.091C404.029 414.678 403.842 415.105 403.469 415.371C403.096 415.638 402.509 415.771 401.709 415.771V414.951C401.936 414.725 402.089 414.558 402.169 414.451L402.089 414.351C401.649 414.818 401.176 415.171 400.669 415.411C400.176 415.651 399.542 415.771 398.769 415.771ZM399.409 413.951C400.102 413.951 400.642 413.818 401.029 413.551C401.416 413.285 401.609 412.905 401.609 412.411C401.609 411.931 401.409 411.551 401.009 411.271C400.622 410.991 400.096 410.851 399.429 410.851C398.816 410.851 398.329 410.991 397.969 411.271C397.622 411.538 397.449 411.918 397.449 412.411C397.449 412.918 397.622 413.305 397.969 413.571C398.316 413.825 398.796 413.951 399.409 413.951ZM406.269 403.091C406.269 402.558 406.476 402.145 406.889 401.851C407.316 401.558 407.949 401.411 408.789 401.411V406.051C408.603 406.198 408.456 406.331 408.349 406.451L408.429 406.551C408.789 406.205 409.256 405.931 409.829 405.731C410.416 405.518 410.956 405.411 411.449 405.411C412.636 405.411 413.583 405.745 414.289 406.411C414.996 407.065 415.349 407.925 415.349 408.991V412.171C415.349 412.865 415.176 413.485 414.829 414.031C414.483 414.578 414.016 415.005 413.429 415.311C412.843 415.618 412.216 415.771 411.549 415.771C410.843 415.771 410.223 415.631 409.689 415.351C409.169 415.058 408.696 414.631 408.269 414.071L408.189 414.151C408.243 414.245 408.309 414.338 408.389 414.431C408.469 414.525 408.529 414.598 408.569 414.651C408.569 415.025 408.389 415.305 408.029 415.491C407.669 415.678 407.083 415.771 406.269 415.771V403.091ZM410.809 413.611C411.476 413.611 411.983 413.478 412.329 413.211C412.689 412.931 412.869 412.525 412.869 411.991V409.151C412.869 408.645 412.689 408.258 412.329 407.991C411.969 407.711 411.463 407.571 410.809 407.571C410.223 407.571 409.729 407.718 409.329 408.011C408.943 408.305 408.749 408.658 408.749 409.071V412.091C408.749 412.531 408.943 412.898 409.329 413.191C409.716 413.471 410.209 413.611 410.809 413.611ZM419.238 404.471C418.758 404.471 418.358 404.331 418.038 404.051C417.731 403.758 417.578 403.385 417.578 402.931C417.578 402.491 417.731 402.131 418.038 401.851C418.358 401.558 418.758 401.411 419.238 401.411C419.718 401.411 420.111 401.558 420.418 401.851C420.738 402.131 420.898 402.491 420.898 402.931C420.898 403.385 420.738 403.758 420.418 404.051C420.111 404.331 419.718 404.471 419.238 404.471ZM417.978 406.931C417.978 406.385 418.185 405.998 418.598 405.771C419.011 405.531 419.638 405.411 420.478 405.411V414.251C420.478 414.785 420.271 415.171 419.858 415.411C419.445 415.651 418.818 415.771 417.978 415.771V406.931ZM426.542 415.771C425.435 415.771 424.595 415.458 424.022 414.831C423.462 414.191 423.182 413.385 423.182 412.411V402.931C423.182 402.385 423.382 401.998 423.782 401.771C424.195 401.531 424.828 401.411 425.682 401.411V412.311C425.682 412.765 425.782 413.098 425.982 413.311C426.182 413.511 426.502 413.611 426.942 413.611C427.435 413.611 427.928 413.485 428.422 413.231C428.555 413.351 428.655 413.505 428.722 413.691C428.802 413.865 428.842 414.045 428.842 414.231C428.842 414.631 428.642 414.991 428.242 415.311C427.842 415.618 427.275 415.771 426.542 415.771ZM432.226 404.471C431.746 404.471 431.346 404.331 431.026 404.051C430.72 403.758 430.566 403.385 430.566 402.931C430.566 402.491 430.72 402.131 431.026 401.851C431.346 401.558 431.746 401.411 432.226 401.411C432.706 401.411 433.1 401.558 433.406 401.851C433.726 402.131 433.886 402.491 433.886 402.931C433.886 403.385 433.726 403.758 433.406 404.051C433.1 404.331 432.706 404.471 432.226 404.471ZM430.966 406.931C430.966 406.385 431.173 405.998 431.586 405.771C432 405.531 432.626 405.411 433.466 405.411V414.251C433.466 414.785 433.26 415.171 432.846 415.411C432.433 415.651 431.806 415.771 430.966 415.771V406.931ZM440.326 415.771C439.246 415.771 438.446 415.458 437.926 414.831C437.406 414.205 437.146 413.398 437.146 412.411V407.451H435.086C435.086 406.825 435.206 406.358 435.446 406.051C435.686 405.745 436.006 405.591 436.406 405.591H437.186V403.931C437.186 403.385 437.386 402.998 437.786 402.771C438.186 402.531 438.793 402.411 439.606 402.411V405.591H442.266C442.266 406.258 442.14 406.738 441.886 407.031C441.633 407.311 441.226 407.451 440.666 407.451H439.646V412.311C439.646 412.778 439.733 413.111 439.906 413.311C440.093 413.511 440.406 413.611 440.846 413.611C441.313 413.611 441.78 413.485 442.246 413.231C442.38 413.351 442.486 413.505 442.566 413.691C442.646 413.865 442.686 414.045 442.686 414.231C442.686 414.631 442.48 414.991 442.066 415.311C441.653 415.618 441.073 415.771 440.326 415.771ZM446.23 404.471C445.75 404.471 445.35 404.331 445.03 404.051C444.723 403.758 444.57 403.385 444.57 402.931C444.57 402.491 444.723 402.131 445.03 401.851C445.35 401.558 445.75 401.411 446.23 401.411C446.71 401.411 447.103 401.558 447.41 401.851C447.73 402.131 447.89 402.491 447.89 402.931C447.89 403.385 447.73 403.758 447.41 404.051C447.103 404.331 446.71 404.471 446.23 404.471ZM444.97 406.931C444.97 406.385 445.177 405.998 445.59 405.771C446.003 405.531 446.63 405.411 447.47 405.411V414.251C447.47 414.785 447.263 415.171 446.85 415.411C446.437 415.651 445.81 415.771 444.97 415.771V406.931ZM454.614 415.771C453.787 415.771 453.034 415.611 452.354 415.291C451.674 414.958 451.134 414.511 450.734 413.951C450.334 413.378 450.134 412.738 450.134 412.031V409.371C450.134 408.625 450.34 407.951 450.754 407.351C451.167 406.751 451.714 406.278 452.394 405.931C453.087 405.585 453.834 405.411 454.634 405.411C455.42 405.411 456.14 405.578 456.794 405.911C457.46 406.231 457.987 406.685 458.374 407.271C458.76 407.845 458.954 408.505 458.954 409.251V410.371C458.954 410.665 458.84 410.911 458.614 411.111C458.4 411.311 458.127 411.411 457.794 411.411H452.554V411.851C452.554 412.425 452.727 412.891 453.074 413.251C453.42 413.611 453.94 413.791 454.634 413.791C455.3 413.791 455.794 413.645 456.114 413.351C456.447 413.058 456.614 412.678 456.614 412.211C456.854 412.185 457.02 412.171 457.114 412.171C457.607 412.171 457.994 412.285 458.274 412.511C458.554 412.725 458.694 413.031 458.694 413.431C458.694 413.818 458.514 414.191 458.154 414.551C457.794 414.911 457.3 415.205 456.674 415.431C456.047 415.658 455.36 415.771 454.614 415.771ZM456.694 409.631V409.251C456.694 408.691 456.5 408.238 456.114 407.891C455.727 407.545 455.227 407.371 454.614 407.371C454 407.371 453.5 407.545 453.114 407.891C452.74 408.225 452.554 408.678 452.554 409.251V409.631H456.694ZM464.939 415.771C463.659 415.771 462.625 415.545 461.839 415.091C461.065 414.625 460.672 414.005 460.659 413.231C460.659 412.898 460.792 412.618 461.059 412.391C461.339 412.165 461.779 412.045 462.379 412.031C462.499 412.618 462.779 413.071 463.219 413.391C463.659 413.698 464.192 413.851 464.819 413.851C465.499 413.851 466.032 413.765 466.419 413.591C466.805 413.418 466.999 413.158 466.999 412.811C466.999 412.491 466.839 412.225 466.519 412.011C466.212 411.798 465.599 411.585 464.679 411.371C463.679 411.131 462.899 410.891 462.339 410.651C461.792 410.411 461.385 410.105 461.119 409.731C460.852 409.358 460.719 408.865 460.719 408.251C460.719 407.398 461.079 406.711 461.799 406.191C462.519 405.671 463.505 405.411 464.759 405.411C465.972 405.411 466.979 405.631 467.779 406.071C468.579 406.498 468.979 407.071 468.979 407.791C468.979 408.151 468.845 408.418 468.579 408.591C468.312 408.765 467.872 408.858 467.259 408.871C467.125 408.338 466.872 407.938 466.499 407.671C466.125 407.405 465.599 407.271 464.919 407.271C464.412 407.271 463.972 407.358 463.599 407.531C463.239 407.705 463.059 407.931 463.059 408.211C463.059 408.505 463.212 408.731 463.519 408.891C463.825 409.051 464.359 409.211 465.119 409.371C466.612 409.691 467.692 410.118 468.359 410.651C469.039 411.185 469.379 411.911 469.379 412.831C469.379 413.725 468.979 414.438 468.179 414.971C467.392 415.505 466.312 415.771 464.939 415.771Z" fill="black"/>
<path d="M972.636 434.71C972.412 434.71 972.232 434.646 972.096 434.518C971.968 434.39 971.904 434.222 971.904 434.014C971.904 433.39 972.148 432.822 972.636 432.31C973.132 431.79 973.908 431.29 974.964 430.81C975.468 430.586 975.852 430.382 976.116 430.198C976.38 430.006 976.564 429.81 976.668 429.61C976.78 429.402 976.836 429.154 976.836 428.866C976.836 428.466 976.7 428.158 976.428 427.942C976.156 427.718 975.772 427.606 975.276 427.606C974.14 427.606 973.572 428.074 973.572 429.01C973.572 429.226 973.588 429.414 973.62 429.574C973.548 429.59 973.444 429.598 973.308 429.598C972.94 429.598 972.624 429.494 972.36 429.286C972.104 429.07 971.976 428.806 971.976 428.494C971.976 428.07 972.12 427.682 972.408 427.33C972.696 426.978 973.092 426.702 973.596 426.502C974.1 426.302 974.66 426.202 975.276 426.202C975.908 426.202 976.464 426.314 976.944 426.538C977.432 426.754 977.808 427.066 978.072 427.474C978.336 427.874 978.468 428.338 978.468 428.866C978.468 429.458 978.248 429.998 977.808 430.486C977.368 430.966 976.7 431.41 975.804 431.818C975.108 432.138 974.592 432.422 974.256 432.67C973.928 432.91 973.752 433.134 973.728 433.342H977.376C977.776 433.342 978.08 433.458 978.288 433.69C978.496 433.922 978.6 434.262 978.6 434.71H972.636ZM982.99 426.202C983.694 426.202 984.31 426.338 984.838 426.61C985.366 426.874 985.774 427.25 986.062 427.738C986.35 428.226 986.494 428.798 986.494 429.454C986.494 429.87 986.402 430.298 986.218 430.738C986.042 431.178 985.794 431.574 985.474 431.926L983.194 434.458C983.066 434.594 982.946 434.686 982.834 434.734C982.722 434.79 982.582 434.818 982.414 434.818C981.998 434.818 981.646 434.646 981.358 434.302L983.014 432.55C983.278 432.486 983.514 432.406 983.722 432.31L983.662 432.166C983.326 432.326 982.97 432.406 982.594 432.406C981.97 432.406 981.422 432.286 980.95 432.046C980.486 431.798 980.126 431.454 979.87 431.014C979.622 430.566 979.498 430.046 979.498 429.454C979.498 428.798 979.638 428.226 979.918 427.738C980.206 427.25 980.614 426.874 981.142 426.61C981.67 426.338 982.286 426.202 982.99 426.202ZM982.99 427.57C982.406 427.57 981.938 427.742 981.586 428.086C981.234 428.43 981.058 428.886 981.058 429.454C981.058 430.03 981.234 430.494 981.586 430.846C981.938 431.19 982.406 431.362 982.99 431.362C983.566 431.362 984.03 431.186 984.382 430.834C984.742 430.482 984.922 430.022 984.922 429.454C984.922 428.894 984.742 428.442 984.382 428.098C984.03 427.746 983.566 427.57 982.99 427.57ZM990.754 429.634C990.754 429.338 990.87 429.094 991.102 428.902C991.334 428.702 991.678 428.602 992.134 428.602V429.25C991.998 429.434 991.922 429.542 991.906 429.574L991.954 429.622C992.21 429.286 992.49 429.034 992.794 428.866C993.106 428.69 993.49 428.602 993.946 428.602C994.386 428.602 994.774 428.694 995.11 428.878C995.454 429.054 995.722 429.306 995.914 429.634C996.106 429.962 996.202 430.338 996.202 430.762V432.658C996.202 433.09 996.094 433.47 995.878 433.798C995.67 434.126 995.382 434.378 995.014 434.554C994.646 434.73 994.23 434.818 993.766 434.818C993.47 434.818 993.162 434.758 992.842 434.638C992.53 434.51 992.266 434.338 992.05 434.122L992.002 434.182C992.058 434.262 992.146 434.346 992.266 434.434V436.21C992.266 436.882 991.762 437.218 990.754 437.218V429.634ZM993.478 433.522C993.87 433.522 994.174 433.438 994.39 433.27C994.606 433.102 994.714 432.866 994.714 432.562V430.858C994.714 430.546 994.606 430.31 994.39 430.15C994.182 429.982 993.878 429.898 993.478 429.898C993.118 429.898 992.822 429.986 992.59 430.162C992.358 430.33 992.242 430.542 992.242 430.798V432.622C992.242 432.87 992.354 433.082 992.578 433.258C992.81 433.434 993.11 433.522 993.478 433.522ZM1000.48 429.898C1000.01 429.898 999.626 430.026 999.33 430.282C999.034 430.53 998.886 430.842 998.886 431.218V433.906C998.886 434.226 998.766 434.458 998.526 434.602C998.286 434.746 997.91 434.818 997.398 434.818V429.754C997.398 429.386 997.514 429.102 997.746 428.902C997.986 428.702 998.346 428.602 998.826 428.602V429.31C998.706 429.446 998.61 429.578 998.538 429.706L998.61 429.754C999.114 428.986 999.746 428.602 1000.51 428.602C1000.85 428.602 1001.11 428.694 1001.29 428.878C1001.46 429.054 1001.55 429.278 1001.55 429.55C1001.55 429.758 1001.49 429.934 1001.38 430.078C1001.17 429.958 1000.87 429.898 1000.48 429.898ZM1004.3 434.818C1003.78 434.818 1003.31 434.726 1002.88 434.542C1002.47 434.35 1002.14 434.086 1001.9 433.75C1001.66 433.414 1001.54 433.034 1001.54 432.61V430.918C1001.54 430.486 1001.66 430.094 1001.89 429.742C1002.13 429.39 1002.46 429.114 1002.87 428.914C1003.29 428.706 1003.76 428.602 1004.3 428.602C1004.84 428.602 1005.31 428.706 1005.73 428.914C1006.15 429.114 1006.48 429.39 1006.71 429.742C1006.95 430.094 1007.07 430.486 1007.07 430.918V432.61C1007.07 433.034 1006.95 433.414 1006.7 433.75C1006.46 434.086 1006.13 434.35 1005.7 434.542C1005.29 434.726 1004.82 434.818 1004.3 434.818ZM1004.3 433.534C1004.7 433.534 1005.01 433.442 1005.24 433.258C1005.47 433.074 1005.58 432.826 1005.58 432.514V430.99C1005.58 430.662 1005.47 430.398 1005.24 430.198C1005.01 429.99 1004.7 429.886 1004.3 429.886C1003.91 429.886 1003.6 429.99 1003.36 430.198C1003.13 430.398 1003.02 430.662 1003.02 430.99V432.514C1003.02 432.826 1003.13 433.074 1003.36 433.258C1003.6 433.442 1003.91 433.534 1004.3 433.534ZM1010.16 434.818C1009.73 434.818 1009.34 434.726 1009 434.542C1008.66 434.358 1008.38 434.106 1008.18 433.786C1007.98 433.458 1007.88 433.082 1007.88 432.658V430.762C1007.88 430.346 1007.99 429.974 1008.2 429.646C1008.4 429.318 1008.69 429.062 1009.06 428.878C1009.44 428.694 1009.85 428.602 1010.31 428.602C1010.6 428.602 1010.91 428.666 1011.22 428.794C1011.54 428.914 1011.81 429.078 1012.02 429.286L1012.07 429.226C1012.03 429.162 1011.94 429.082 1011.81 428.986V427.21C1011.81 426.89 1011.93 426.642 1012.18 426.466C1012.44 426.29 1012.82 426.202 1013.33 426.202V433.786C1013.33 434.082 1013.22 434.33 1013 434.53C1012.77 434.722 1012.42 434.818 1011.95 434.818V434.158C1012.06 434.03 1012.13 433.926 1012.18 433.846L1012.12 433.798C1011.87 434.134 1011.6 434.39 1011.29 434.566C1011 434.734 1010.62 434.818 1010.16 434.818ZM1010.61 433.522C1010.97 433.522 1011.26 433.438 1011.48 433.27C1011.72 433.094 1011.83 432.874 1011.83 432.61V430.798C1011.83 430.542 1011.72 430.33 1011.48 430.162C1011.26 429.986 1010.96 429.898 1010.6 429.898C1010.2 429.898 1009.9 429.982 1009.68 430.15C1009.48 430.31 1009.37 430.542 1009.37 430.846V432.55C1009.37 432.87 1009.48 433.114 1009.68 433.282C1009.9 433.442 1010.21 433.522 1010.61 433.522ZM1020.06 433.654C1020.06 434.03 1019.94 434.318 1019.7 434.518C1019.47 434.718 1019.11 434.818 1018.63 434.818V434.098C1018.73 433.978 1018.83 433.846 1018.92 433.702L1018.85 433.654C1018.33 434.43 1017.65 434.818 1016.78 434.818C1016.37 434.818 1016.01 434.726 1015.68 434.542C1015.36 434.35 1015.1 434.086 1014.91 433.75C1014.73 433.414 1014.63 433.034 1014.63 432.61V429.514C1014.63 429.186 1014.75 428.954 1014.99 428.818C1015.24 428.674 1015.62 428.602 1016.12 428.602V432.502C1016.12 432.814 1016.22 433.062 1016.41 433.246C1016.6 433.43 1016.88 433.522 1017.24 433.522C1017.64 433.522 1017.96 433.398 1018.2 433.15C1018.45 432.894 1018.57 432.578 1018.57 432.202V429.514C1018.57 429.186 1018.69 428.954 1018.93 428.818C1019.17 428.674 1019.55 428.602 1020.06 428.602V433.654ZM1024.05 434.818C1023.53 434.818 1023.07 434.726 1022.67 434.542C1022.27 434.35 1021.96 434.086 1021.73 433.75C1021.51 433.414 1021.4 433.034 1021.4 432.61V430.93C1021.4 430.474 1021.51 430.07 1021.73 429.718C1021.96 429.366 1022.27 429.094 1022.67 428.902C1023.07 428.702 1023.52 428.602 1024.04 428.602C1024.52 428.602 1024.94 428.67 1025.31 428.806C1025.68 428.942 1025.98 429.134 1026.18 429.382C1026.39 429.622 1026.5 429.902 1026.5 430.222C1026.5 430.47 1026.4 430.67 1026.21 430.822C1026.02 430.974 1025.76 431.05 1025.45 431.05C1025.36 431.05 1025.3 431.046 1025.26 431.038C1025.26 430.694 1025.15 430.418 1024.92 430.21C1024.71 430.002 1024.42 429.898 1024.07 429.898C1023.72 429.898 1023.43 429.998 1023.21 430.198C1022.99 430.398 1022.88 430.662 1022.88 430.99V432.502C1022.88 432.806 1023 433.054 1023.22 433.246C1023.44 433.43 1023.73 433.522 1024.08 433.522C1024.44 433.522 1024.72 433.418 1024.95 433.21C1025.17 432.994 1025.28 432.722 1025.28 432.394C1025.33 432.386 1025.4 432.382 1025.49 432.382C1025.8 432.382 1026.05 432.454 1026.24 432.598C1026.44 432.742 1026.53 432.938 1026.53 433.186C1026.53 433.506 1026.42 433.79 1026.21 434.038C1026 434.278 1025.71 434.47 1025.33 434.614C1024.96 434.75 1024.53 434.818 1024.05 434.818ZM1030.14 434.818C1029.49 434.818 1029.01 434.63 1028.7 434.254C1028.38 433.878 1028.23 433.394 1028.23 432.802V429.826H1026.99C1026.99 429.45 1027.06 429.17 1027.21 428.986C1027.35 428.802 1027.54 428.71 1027.78 428.71H1028.25V427.714C1028.25 427.386 1028.37 427.154 1028.61 427.018C1028.85 426.874 1029.22 426.802 1029.7 426.802V428.71H1031.3C1031.3 429.11 1031.22 429.398 1031.07 429.574C1030.92 429.742 1030.68 429.826 1030.34 429.826H1029.73V432.742C1029.73 433.022 1029.78 433.222 1029.88 433.342C1030 433.462 1030.18 433.522 1030.45 433.522C1030.73 433.522 1031.01 433.446 1031.29 433.294C1031.37 433.366 1031.43 433.458 1031.48 433.57C1031.53 433.674 1031.55 433.782 1031.55 433.894C1031.55 434.134 1031.43 434.35 1031.18 434.542C1030.93 434.726 1030.58 434.818 1030.14 434.818ZM1035.12 434.818C1034.35 434.818 1033.73 434.682 1033.26 434.41C1032.8 434.13 1032.56 433.758 1032.55 433.294C1032.55 433.094 1032.63 432.926 1032.79 432.79C1032.96 432.654 1033.22 432.582 1033.58 432.574C1033.66 432.926 1033.82 433.198 1034.09 433.39C1034.35 433.574 1034.67 433.666 1035.05 433.666C1035.46 433.666 1035.78 433.614 1036.01 433.51C1036.24 433.406 1036.36 433.25 1036.36 433.042C1036.36 432.85 1036.26 432.69 1036.07 432.562C1035.88 432.434 1035.52 432.306 1034.96 432.178C1034.36 432.034 1033.9 431.89 1033.56 431.746C1033.23 431.602 1032.99 431.418 1032.83 431.194C1032.67 430.97 1032.59 430.674 1032.59 430.306C1032.59 429.794 1032.8 429.382 1033.24 429.07C1033.67 428.758 1034.26 428.602 1035.01 428.602C1035.74 428.602 1036.34 428.734 1036.82 428.998C1037.3 429.254 1037.54 429.598 1037.54 430.03C1037.54 430.246 1037.46 430.406 1037.3 430.51C1037.14 430.614 1036.88 430.67 1036.51 430.678C1036.43 430.358 1036.28 430.118 1036.06 429.958C1035.83 429.798 1035.52 429.718 1035.11 429.718C1034.8 429.718 1034.54 429.77 1034.32 429.874C1034.1 429.978 1033.99 430.114 1033.99 430.282C1033.99 430.458 1034.08 430.594 1034.27 430.69C1034.45 430.786 1034.77 430.882 1035.23 430.978C1036.12 431.17 1036.77 431.426 1037.17 431.746C1037.58 432.066 1037.78 432.502 1037.78 433.054C1037.78 433.59 1037.54 434.018 1037.06 434.338C1036.59 434.658 1035.94 434.818 1035.12 434.818Z" fill="black"/>
<path d="M970.626 462.516H970.014C969.678 462.516 969.41 462.392 969.21 462.144C969.01 461.888 968.91 461.552 968.91 461.136H971.49C971.698 461.136 971.874 461.204 972.018 461.34C972.162 461.476 972.234 461.636 972.234 461.82V468.456C972.234 468.84 972.094 469.136 971.814 469.344C971.542 469.544 971.146 469.644 970.626 469.644V462.516ZM974.168 469.536C973.944 469.536 973.764 469.472 973.628 469.344C973.5 469.216 973.436 469.048 973.436 468.84C973.436 468.216 973.68 467.648 974.168 467.136C974.664 466.616 975.44 466.116 976.496 465.636C977 465.412 977.384 465.208 977.648 465.024C977.912 464.832 978.096 464.636 978.2 464.436C978.312 464.228 978.368 463.98 978.368 463.692C978.368 463.292 978.232 462.984 977.96 462.768C977.688 462.544 977.304 462.432 976.808 462.432C975.672 462.432 975.104 462.9 975.104 463.836C975.104 464.052 975.12 464.24 975.152 464.4C975.08 464.416 974.976 464.424 974.84 464.424C974.472 464.424 974.156 464.32 973.892 464.112C973.636 463.896 973.508 463.632 973.508 463.32C973.508 462.896 973.652 462.508 973.94 462.156C974.228 461.804 974.624 461.528 975.128 461.328C975.632 461.128 976.192 461.028 976.808 461.028C977.44 461.028 977.996 461.14 978.476 461.364C978.964 461.58 979.34 461.892 979.604 462.3C979.868 462.7 980 463.164 980 463.692C980 464.284 979.78 464.824 979.34 465.312C978.9 465.792 978.232 466.236 977.336 466.644C976.64 466.964 976.124 467.248 975.788 467.496C975.46 467.736 975.284 467.96 975.26 468.168H978.908C979.308 468.168 979.612 468.284 979.82 468.516C980.028 468.748 980.132 469.088 980.132 469.536H974.168ZM984.376 464.46C984.376 464.164 984.492 463.92 984.724 463.728C984.956 463.528 985.3 463.428 985.756 463.428V464.076C985.62 464.26 985.544 464.368 985.528 464.4L985.576 464.448C985.832 464.112 986.112 463.86 986.416 463.692C986.728 463.516 987.112 463.428 987.568 463.428C988.008 463.428 988.396 463.52 988.732 463.704C989.076 463.88 989.344 464.132 989.536 464.46C989.728 464.788 989.824 465.164 989.824 465.588V467.484C989.824 467.916 989.716 468.296 989.5 468.624C989.292 468.952 989.004 469.204 988.636 469.38C988.268 469.556 987.852 469.644 987.388 469.644C987.092 469.644 986.784 469.584 986.464 469.464C986.152 469.336 985.888 469.164 985.672 468.948L985.624 469.008C985.68 469.088 985.768 469.172 985.888 469.26V471.036C985.888 471.708 985.384 472.044 984.376 472.044V464.46ZM987.1 468.348C987.492 468.348 987.796 468.264 988.012 468.096C988.228 467.928 988.336 467.692 988.336 467.388V465.684C988.336 465.372 988.228 465.136 988.012 464.976C987.804 464.808 987.5 464.724 987.1 464.724C986.74 464.724 986.444 464.812 986.212 464.988C985.98 465.156 985.864 465.368 985.864 465.624V467.448C985.864 467.696 985.976 467.908 986.2 468.084C986.432 468.26 986.732 468.348 987.1 468.348ZM994.104 464.724C993.632 464.724 993.248 464.852 992.952 465.108C992.656 465.356 992.508 465.668 992.508 466.044V468.732C992.508 469.052 992.388 469.284 992.148 469.428C991.908 469.572 991.532 469.644 991.02 469.644V464.58C991.02 464.212 991.136 463.928 991.368 463.728C991.608 463.528 991.968 463.428 992.448 463.428V464.136C992.328 464.272 992.232 464.404 992.16 464.532L992.232 464.58C992.736 463.812 993.368 463.428 994.128 463.428C994.472 463.428 994.732 463.52 994.908 463.704C995.084 463.88 995.172 464.104 995.172 464.376C995.172 464.584 995.116 464.76 995.004 464.904C994.788 464.784 994.488 464.724 994.104 464.724ZM997.923 469.644C997.403 469.644 996.931 469.552 996.507 469.368C996.091 469.176 995.763 468.912 995.523 468.576C995.283 468.24 995.163 467.86 995.163 467.436V465.744C995.163 465.312 995.279 464.92 995.511 464.568C995.751 464.216 996.079 463.94 996.495 463.74C996.911 463.532 997.387 463.428 997.923 463.428C998.459 463.428 998.935 463.532 999.351 463.74C999.775 463.94 1000.1 464.216 1000.33 464.568C1000.57 464.92 1000.69 465.312 1000.69 465.744V467.436C1000.69 467.86 1000.57 468.24 1000.32 468.576C1000.08 468.912 999.751 469.176 999.327 469.368C998.911 469.552 998.443 469.644 997.923 469.644ZM997.923 468.36C998.323 468.36 998.635 468.268 998.859 468.084C999.091 467.9 999.207 467.652 999.207 467.34V465.816C999.207 465.488 999.091 465.224 998.859 465.024C998.635 464.816 998.323 464.712 997.923 464.712C997.531 464.712 997.219 464.816 996.987 465.024C996.755 465.224 996.639 465.488 996.639 465.816V467.34C996.639 467.652 996.755 467.9 996.987 468.084C997.219 468.268 997.531 468.36 997.923 468.36ZM1003.79 469.644C1003.35 469.644 1002.97 469.552 1002.62 469.368C1002.28 469.184 1002.01 468.932 1001.81 468.612C1001.61 468.284 1001.51 467.908 1001.51 467.484V465.588C1001.51 465.172 1001.61 464.8 1001.82 464.472C1002.03 464.144 1002.31 463.888 1002.68 463.704C1003.06 463.52 1003.47 463.428 1003.93 463.428C1004.23 463.428 1004.53 463.492 1004.84 463.62C1005.16 463.74 1005.43 463.904 1005.65 464.112L1005.69 464.052C1005.65 463.988 1005.57 463.908 1005.43 463.812V462.036C1005.43 461.716 1005.55 461.468 1005.8 461.292C1006.06 461.116 1006.44 461.028 1006.95 461.028V468.612C1006.95 468.908 1006.84 469.156 1006.62 469.356C1006.39 469.548 1006.05 469.644 1005.57 469.644V468.984C1005.68 468.856 1005.75 468.752 1005.8 468.672L1005.74 468.624C1005.49 468.96 1005.22 469.216 1004.91 469.392C1004.62 469.56 1004.24 469.644 1003.79 469.644ZM1004.23 468.348C1004.59 468.348 1004.88 468.264 1005.11 468.096C1005.34 467.92 1005.45 467.7 1005.45 467.436V465.624C1005.45 465.368 1005.34 465.156 1005.11 464.988C1004.88 464.812 1004.59 464.724 1004.22 464.724C1003.83 464.724 1003.52 464.808 1003.31 464.976C1003.1 465.136 1002.99 465.368 1002.99 465.672V467.376C1002.99 467.696 1003.1 467.94 1003.31 468.108C1003.52 468.268 1003.83 468.348 1004.23 468.348ZM1013.68 468.48C1013.68 468.856 1013.56 469.144 1013.32 469.344C1013.09 469.544 1012.73 469.644 1012.25 469.644V468.924C1012.36 468.804 1012.45 468.672 1012.54 468.528L1012.47 468.48C1011.96 469.256 1011.27 469.644 1010.4 469.644C1010 469.644 1009.63 469.552 1009.3 469.368C1008.98 469.176 1008.72 468.912 1008.53 468.576C1008.35 468.24 1008.26 467.86 1008.26 467.436V464.34C1008.26 464.012 1008.38 463.78 1008.62 463.644C1008.86 463.5 1009.24 463.428 1009.74 463.428V467.328C1009.74 467.64 1009.84 467.888 1010.03 468.072C1010.22 468.256 1010.5 468.348 1010.86 468.348C1011.26 468.348 1011.58 468.224 1011.82 467.976C1012.07 467.72 1012.19 467.404 1012.19 467.028V464.34C1012.19 464.012 1012.31 463.78 1012.55 463.644C1012.79 463.5 1013.17 463.428 1013.68 463.428V468.48ZM1017.67 469.644C1017.15 469.644 1016.69 469.552 1016.29 469.368C1015.89 469.176 1015.58 468.912 1015.35 468.576C1015.13 468.24 1015.02 467.86 1015.02 467.436V465.756C1015.02 465.3 1015.13 464.896 1015.35 464.544C1015.58 464.192 1015.89 463.92 1016.29 463.728C1016.69 463.528 1017.15 463.428 1017.66 463.428C1018.14 463.428 1018.56 463.496 1018.93 463.632C1019.31 463.768 1019.6 463.96 1019.81 464.208C1020.01 464.448 1020.12 464.728 1020.12 465.048C1020.12 465.296 1020.02 465.496 1019.83 465.648C1019.64 465.8 1019.39 465.876 1019.07 465.876C1018.99 465.876 1018.92 465.872 1018.88 465.864C1018.88 465.52 1018.77 465.244 1018.55 465.036C1018.33 464.828 1018.05 464.724 1017.69 464.724C1017.34 464.724 1017.05 464.824 1016.83 465.024C1016.61 465.224 1016.51 465.488 1016.51 465.816V467.328C1016.51 467.632 1016.62 467.88 1016.84 468.072C1017.07 468.256 1017.35 468.348 1017.71 468.348C1018.06 468.348 1018.35 468.244 1018.57 468.036C1018.79 467.82 1018.91 467.548 1018.91 467.22C1018.95 467.212 1019.02 467.208 1019.11 467.208C1019.42 467.208 1019.67 467.28 1019.87 467.424C1020.06 467.568 1020.15 467.764 1020.15 468.012C1020.15 468.332 1020.05 468.616 1019.83 468.864C1019.62 469.104 1019.33 469.296 1018.95 469.44C1018.58 469.576 1018.15 469.644 1017.67 469.644ZM1023.76 469.644C1023.11 469.644 1022.63 469.456 1022.32 469.08C1022.01 468.704 1021.85 468.22 1021.85 467.628V464.652H1020.62C1020.62 464.276 1020.69 463.996 1020.83 463.812C1020.98 463.628 1021.17 463.536 1021.41 463.536H1021.88V462.54C1021.88 462.212 1022 461.98 1022.24 461.844C1022.48 461.7 1022.84 461.628 1023.33 461.628V463.536H1024.92C1024.92 463.936 1024.85 464.224 1024.7 464.4C1024.54 464.568 1024.3 464.652 1023.96 464.652H1023.35V467.568C1023.35 467.848 1023.4 468.048 1023.51 468.168C1023.62 468.288 1023.81 468.348 1024.07 468.348C1024.35 468.348 1024.63 468.272 1024.91 468.12C1024.99 468.192 1025.06 468.284 1025.1 468.396C1025.15 468.5 1025.18 468.608 1025.18 468.72C1025.18 468.96 1025.05 469.176 1024.8 469.368C1024.56 469.552 1024.21 469.644 1023.76 469.644ZM1028.74 469.644C1027.97 469.644 1027.35 469.508 1026.88 469.236C1026.42 468.956 1026.18 468.584 1026.17 468.12C1026.17 467.92 1026.25 467.752 1026.41 467.616C1026.58 467.48 1026.85 467.408 1027.21 467.4C1027.28 467.752 1027.45 468.024 1027.71 468.216C1027.97 468.4 1028.29 468.492 1028.67 468.492C1029.08 468.492 1029.4 468.44 1029.63 468.336C1029.86 468.232 1029.98 468.076 1029.98 467.868C1029.98 467.676 1029.88 467.516 1029.69 467.388C1029.51 467.26 1029.14 467.132 1028.59 467.004C1027.99 466.86 1027.52 466.716 1027.18 466.572C1026.85 466.428 1026.61 466.244 1026.45 466.02C1026.29 465.796 1026.21 465.5 1026.21 465.132C1026.21 464.62 1026.43 464.208 1026.86 463.896C1027.29 463.584 1027.88 463.428 1028.63 463.428C1029.36 463.428 1029.97 463.56 1030.45 463.824C1030.93 464.08 1031.17 464.424 1031.17 464.856C1031.17 465.072 1031.09 465.232 1030.93 465.336C1030.77 465.44 1030.5 465.496 1030.13 465.504C1030.05 465.184 1029.9 464.944 1029.68 464.784C1029.45 464.624 1029.14 464.544 1028.73 464.544C1028.43 464.544 1028.16 464.596 1027.94 464.7C1027.72 464.804 1027.61 464.94 1027.61 465.108C1027.61 465.284 1027.71 465.42 1027.89 465.516C1028.07 465.612 1028.39 465.708 1028.85 465.804C1029.75 465.996 1030.39 466.252 1030.79 466.572C1031.2 466.892 1031.41 467.328 1031.41 467.88C1031.41 468.416 1031.17 468.844 1030.69 469.164C1030.21 469.484 1029.57 469.644 1028.74 469.644Z" fill="black"/>
<path d="M970.626 500.243H970.014C969.678 500.243 969.41 500.119 969.21 499.871C969.01 499.615 968.91 499.279 968.91 498.863H971.49C971.698 498.863 971.874 498.931 972.018 499.067C972.162 499.203 972.234 499.363 972.234 499.547V506.183C972.234 506.567 972.094 506.863 971.814 507.071C971.542 507.271 971.146 507.371 970.626 507.371V500.243ZM976.988 507.371C976.364 507.371 975.792 507.251 975.272 507.011C974.76 506.771 974.356 506.443 974.06 506.027C973.764 505.603 973.616 505.139 973.616 504.635V501.491C973.616 500.987 973.764 500.527 974.06 500.111C974.356 499.687 974.76 499.355 975.272 499.115C975.792 498.875 976.364 498.755 976.988 498.755C977.612 498.755 978.18 498.879 978.692 499.127C979.212 499.367 979.62 499.695 979.916 500.111C980.22 500.527 980.372 500.987 980.372 501.491V504.635C980.372 505.139 980.22 505.599 979.916 506.015C979.62 506.431 979.212 506.763 978.692 507.011C978.18 507.251 977.612 507.371 976.988 507.371ZM976.988 505.967C977.532 505.967 977.964 505.843 978.284 505.595C978.604 505.339 978.764 505.003 978.764 504.587V501.539C978.764 501.123 978.604 500.791 978.284 500.543C977.964 500.287 977.532 500.159 976.988 500.159C976.444 500.159 976.012 500.287 975.692 500.543C975.372 500.791 975.212 501.123 975.212 501.539V504.587C975.212 505.003 975.372 505.339 975.692 505.595C976.012 505.843 976.444 505.967 976.988 505.967ZM984.798 502.187C984.798 501.891 984.914 501.647 985.146 501.455C985.378 501.255 985.722 501.155 986.178 501.155V501.803C986.042 501.987 985.966 502.095 985.95 502.127L985.998 502.175C986.254 501.839 986.534 501.587 986.838 501.419C987.15 501.243 987.534 501.155 987.99 501.155C988.43 501.155 988.818 501.247 989.154 501.431C989.498 501.607 989.766 501.859 989.958 502.187C990.15 502.515 990.246 502.891 990.246 503.315V505.211C990.246 505.643 990.138 506.023 989.922 506.351C989.714 506.679 989.426 506.931 989.058 507.107C988.69 507.283 988.274 507.371 987.81 507.371C987.514 507.371 987.206 507.311 986.886 507.191C986.574 507.063 986.31 506.891 986.094 506.675L986.046 506.735C986.102 506.815 986.19 506.899 986.31 506.987V508.763C986.31 509.435 985.806 509.771 984.798 509.771V502.187ZM987.522 506.075C987.914 506.075 988.218 505.991 988.434 505.823C988.65 505.655 988.758 505.419 988.758 505.115V503.411C988.758 503.099 988.65 502.863 988.434 502.703C988.226 502.535 987.922 502.451 987.522 502.451C987.162 502.451 986.866 502.539 986.634 502.715C986.402 502.883 986.286 503.095 986.286 503.351V505.175C986.286 505.423 986.398 505.635 986.622 505.811C986.854 505.987 987.154 506.075 987.522 506.075ZM994.526 502.451C994.054 502.451 993.67 502.579 993.374 502.835C993.078 503.083 992.93 503.395 992.93 503.771V506.459C992.93 506.779 992.81 507.011 992.57 507.155C992.33 507.299 991.954 507.371 991.442 507.371V502.307C991.442 501.939 991.558 501.655 991.79 501.455C992.03 501.255 992.39 501.155 992.87 501.155V501.863C992.75 501.999 992.654 502.131 992.582 502.259L992.654 502.307C993.158 501.539 993.79 501.155 994.55 501.155C994.894 501.155 995.154 501.247 995.33 501.431C995.506 501.607 995.594 501.831 995.594 502.103C995.594 502.311 995.538 502.487 995.426 502.631C995.21 502.511 994.91 502.451 994.526 502.451ZM998.345 507.371C997.825 507.371 997.353 507.279 996.929 507.095C996.513 506.903 996.185 506.639 995.945 506.303C995.705 505.967 995.585 505.587 995.585 505.163V503.471C995.585 503.039 995.701 502.647 995.933 502.295C996.173 501.943 996.501 501.667 996.917 501.467C997.333 501.259 997.809 501.155 998.345 501.155C998.881 501.155 999.357 501.259 999.773 501.467C1000.2 501.667 1000.52 501.943 1000.76 502.295C1001 502.647 1001.12 503.039 1001.12 503.471V505.163C1001.12 505.587 1000.99 505.967 1000.74 506.303C1000.5 506.639 1000.17 506.903 999.749 507.095C999.333 507.279 998.865 507.371 998.345 507.371ZM998.345 506.087C998.745 506.087 999.057 505.995 999.281 505.811C999.513 505.627 999.629 505.379 999.629 505.067V503.543C999.629 503.215 999.513 502.951 999.281 502.751C999.057 502.543 998.745 502.439 998.345 502.439C997.953 502.439 997.641 502.543 997.409 502.751C997.177 502.951 997.061 503.215 997.061 503.543V505.067C997.061 505.379 997.177 505.627 997.409 505.811C997.641 505.995 997.953 506.087 998.345 506.087ZM1004.21 507.371C1003.78 507.371 1003.39 507.279 1003.04 507.095C1002.7 506.911 1002.43 506.659 1002.23 506.339C1002.03 506.011 1001.93 505.635 1001.93 505.211V503.315C1001.93 502.899 1002.03 502.527 1002.24 502.199C1002.45 501.871 1002.74 501.615 1003.1 501.431C1003.48 501.247 1003.9 501.155 1004.35 501.155C1004.65 501.155 1004.95 501.219 1005.26 501.347C1005.58 501.467 1005.85 501.631 1006.07 501.839L1006.12 501.779C1006.08 501.715 1005.99 501.635 1005.85 501.539V499.763C1005.85 499.443 1005.98 499.195 1006.22 499.019C1006.48 498.843 1006.86 498.755 1007.38 498.755V506.339C1007.38 506.635 1007.26 506.883 1007.04 507.083C1006.82 507.275 1006.47 507.371 1006 507.371V506.711C1006.1 506.583 1006.18 506.479 1006.22 506.399L1006.16 506.351C1005.92 506.687 1005.64 506.943 1005.34 507.119C1005.04 507.287 1004.66 507.371 1004.21 507.371ZM1004.65 506.075C1005.01 506.075 1005.3 505.991 1005.53 505.823C1005.76 505.647 1005.88 505.427 1005.88 505.163V503.351C1005.88 503.095 1005.76 502.883 1005.53 502.715C1005.3 502.539 1005.01 502.451 1004.64 502.451C1004.25 502.451 1003.94 502.535 1003.73 502.703C1003.52 502.863 1003.42 503.095 1003.42 503.399V505.103C1003.42 505.423 1003.52 505.667 1003.73 505.835C1003.94 505.995 1004.25 506.075 1004.65 506.075ZM1014.1 506.207C1014.1 506.583 1013.98 506.871 1013.74 507.071C1013.51 507.271 1013.15 507.371 1012.67 507.371V506.651C1012.78 506.531 1012.87 506.399 1012.96 506.255L1012.89 506.207C1012.38 506.983 1011.69 507.371 1010.83 507.371C1010.42 507.371 1010.05 507.279 1009.72 507.095C1009.4 506.903 1009.15 506.639 1008.95 506.303C1008.77 505.967 1008.68 505.587 1008.68 505.163V502.067C1008.68 501.739 1008.8 501.507 1009.04 501.371C1009.29 501.227 1009.66 501.155 1010.17 501.155V505.055C1010.17 505.367 1010.26 505.615 1010.45 505.799C1010.65 505.983 1010.92 506.075 1011.28 506.075C1011.68 506.075 1012 505.951 1012.24 505.703C1012.49 505.447 1012.61 505.131 1012.61 504.755V502.067C1012.61 501.739 1012.73 501.507 1012.97 501.371C1013.21 501.227 1013.59 501.155 1014.1 501.155V506.207ZM1018.09 507.371C1017.57 507.371 1017.11 507.279 1016.71 507.095C1016.31 506.903 1016 506.639 1015.78 506.303C1015.55 505.967 1015.44 505.587 1015.44 505.163V503.483C1015.44 503.027 1015.55 502.623 1015.78 502.271C1016 501.919 1016.31 501.647 1016.71 501.455C1017.11 501.255 1017.57 501.155 1018.08 501.155C1018.56 501.155 1018.98 501.223 1019.35 501.359C1019.73 501.495 1020.02 501.687 1020.23 501.935C1020.44 502.175 1020.54 502.455 1020.54 502.775C1020.54 503.023 1020.44 503.223 1020.25 503.375C1020.06 503.527 1019.81 503.603 1019.5 503.603C1019.41 503.603 1019.34 503.599 1019.3 503.591C1019.3 503.247 1019.19 502.971 1018.97 502.763C1018.75 502.555 1018.47 502.451 1018.12 502.451C1017.76 502.451 1017.48 502.551 1017.25 502.751C1017.04 502.951 1016.93 503.215 1016.93 503.543V505.055C1016.93 505.359 1017.04 505.607 1017.26 505.799C1017.49 505.983 1017.78 506.075 1018.13 506.075C1018.48 506.075 1018.77 505.971 1018.99 505.763C1019.22 505.547 1019.33 505.275 1019.33 504.947C1019.38 504.939 1019.44 504.935 1019.53 504.935C1019.84 504.935 1020.1 505.007 1020.29 505.151C1020.48 505.295 1020.58 505.491 1020.58 505.739C1020.58 506.059 1020.47 506.343 1020.25 506.591C1020.04 506.831 1019.75 507.023 1019.38 507.167C1019 507.303 1018.57 507.371 1018.09 507.371ZM1024.18 507.371C1023.53 507.371 1023.05 507.183 1022.74 506.807C1022.43 506.431 1022.27 505.947 1022.27 505.355V502.379H1021.04C1021.04 502.003 1021.11 501.723 1021.25 501.539C1021.4 501.355 1021.59 501.263 1021.83 501.263H1022.3V500.267C1022.3 499.939 1022.42 499.707 1022.66 499.571C1022.9 499.427 1023.26 499.355 1023.75 499.355V501.263H1025.34C1025.34 501.663 1025.27 501.951 1025.12 502.127C1024.96 502.295 1024.72 502.379 1024.38 502.379H1023.77V505.295C1023.77 505.575 1023.82 505.775 1023.93 505.895C1024.04 506.015 1024.23 506.075 1024.49 506.075C1024.77 506.075 1025.05 505.999 1025.33 505.847C1025.41 505.919 1025.48 506.011 1025.52 506.123C1025.57 506.227 1025.6 506.335 1025.6 506.447C1025.6 506.687 1025.47 506.903 1025.22 507.095C1024.98 507.279 1024.63 507.371 1024.18 507.371ZM1029.16 507.371C1028.4 507.371 1027.78 507.235 1027.3 506.963C1026.84 506.683 1026.6 506.311 1026.6 505.847C1026.6 505.647 1026.68 505.479 1026.84 505.343C1027 505.207 1027.27 505.135 1027.63 505.127C1027.7 505.479 1027.87 505.751 1028.13 505.943C1028.4 506.127 1028.72 506.219 1029.09 506.219C1029.5 506.219 1029.82 506.167 1030.05 506.063C1030.28 505.959 1030.4 505.803 1030.4 505.595C1030.4 505.403 1030.3 505.243 1030.11 505.115C1029.93 504.987 1029.56 504.859 1029.01 504.731C1028.41 504.587 1027.94 504.443 1027.6 504.299C1027.28 504.155 1027.03 503.971 1026.87 503.747C1026.71 503.523 1026.63 503.227 1026.63 502.859C1026.63 502.347 1026.85 501.935 1027.28 501.623C1027.71 501.311 1028.3 501.155 1029.06 501.155C1029.78 501.155 1030.39 501.287 1030.87 501.551C1031.35 501.807 1031.59 502.151 1031.59 502.583C1031.59 502.799 1031.51 502.959 1031.35 503.063C1031.19 503.167 1030.92 503.223 1030.56 503.231C1030.48 502.911 1030.32 502.671 1030.1 502.511C1029.88 502.351 1029.56 502.271 1029.15 502.271C1028.85 502.271 1028.58 502.323 1028.36 502.427C1028.14 502.531 1028.04 502.667 1028.04 502.835C1028.04 503.011 1028.13 503.147 1028.31 503.243C1028.5 503.339 1028.82 503.435 1029.27 503.531C1030.17 503.723 1030.82 503.979 1031.22 504.299C1031.62 504.619 1031.83 505.055 1031.83 505.607C1031.83 506.143 1031.59 506.571 1031.11 506.891C1030.64 507.211 1029.99 507.371 1029.16 507.371Z" fill="black"/>
<rect x="941.27" y="423.71" width="17.2446" height="17.4128" fill="#FDC500"/>
<rect x="941.27" y="459.987" width="17.2446" height="17.4128" fill="#FD8C00"/>
<rect x="941.27" y="494.812" width="17.2446" height="17.4128" fill="#FF0000"/>
<path d="M301.766 603.486C301.678 600.83 301.028 598.227 299.862 595.859C298.696 593.491 297.042 591.416 295.016 589.781C292.991 588.146 290.644 586.989 288.139 586.394C285.635 585.798 283.035 585.778 280.523 586.334L248.153 531.089L234.24 561.417L267.112 609.228C268.295 613.532 270.963 617.237 274.611 619.642C278.259 622.047 282.634 622.984 286.905 622.276C291.177 621.568 295.049 619.265 297.788 615.802C300.527 612.338 301.943 607.957 301.766 603.486Z" fill="#FFB6B6"/>
<path d="M874.675 274.705L645.527 274.785C634.015 274.789 623.703 268.782 617.944 258.717C615.064 253.684 613.624 248.163 613.622 242.641C613.62 237.119 615.057 231.597 617.933 226.562L732.434 16.0868C738.187 6.01736 748.495 0.00402146 760.007 2.01616e-06C771.519 -0.00401743 781.831 6.00211 787.591 16.0676L902.251 226.489C905.124 231.509 906.56 237.023 906.561 242.542C906.561 248.061 905.124 253.583 902.248 258.618C896.495 268.687 886.187 274.701 874.675 274.705ZM616.502 242.637C616.502 247.663 641.788 236.833 644.407 241.411C649.647 250.567 635.053 271.886 645.526 271.883C645.526 271.883 894.525 266.328 899.758 257.168C902.375 252.588 903.682 247.563 903.68 242.54C903.679 237.516 902.368 232.493 899.747 227.915L785.087 17.4933C779.862 8.36291 770.481 2.89847 760.008 2.90213C749.54 2.90579 616.503 237.61 616.502 242.637Z" fill="#171717"/>
<path d="M1244.04 982.989C1247.01 983.175 1248.65 979.45 1246.4 977.28L1246.18 976.383C1246.21 976.312 1246.24 976.24 1246.27 976.169C1248.04 971.903 1252.91 969.883 1257.15 971.65C1270.53 977.238 1256.4 990.078 1257.46 998.767C1257.83 1001.77 1269.47 1001.93 1268.81 1004.87C1275 991.217 1278.25 976.304 1278.24 961.309C1278.24 957.541 1278.04 953.773 1277.62 950.015C1277.27 946.941 1276.8 943.886 1276.19 940.859C1272.87 924.496 1265.69 908.913 1255.33 895.898C1250.36 893.154 1253.39 888.861 1250.88 883.716C1249.98 881.861 1241.95 881.819 1241.61 879.785C1241.97 879.833 1247.17 874.386 1245.45 871.693C1244.32 869.921 1244.67 867.665 1246.12 866.15C1246.27 866.001 1246.4 865.845 1246.52 865.676C1250.81 859.807 1256.71 860.83 1259.8 868.802C1266.38 872.155 1266.45 877.721 1262.41 883.075C1259.84 886.481 1259.49 891.089 1257.24 894.736C1257.47 895.035 1257.71 895.326 1257.94 895.626C1262.2 901.135 1265.88 907.057 1268.99 913.279C1268.11 906.364 1269.4 898.031 1271.6 892.659C1274.13 886.495 1278.89 881.309 1283.05 875.977C1288.03 869.609 1298.16 872.499 1299.04 880.562C1299.05 880.639 1299.06 880.716 1299.06 880.794C1298.45 881.145 1297.84 881.518 1297.25 881.913C1293.89 884.159 1295.06 889.421 1299.04 890.039L1299.13 890.053C1298.91 892.294 1291.04 899.35 1290.48 901.534C1295.81 922.297 1291.82 925.038 1275.44 925.385L1274.58 926.622C1276.13 931.129 1277.38 935.743 1278.32 940.418C1279.2 944.757 1279.82 949.143 1280.16 953.548C1280.59 959.105 1280.56 964.691 1280.09 970.24L1280.12 970.043C1281.3 963.932 1284.58 958.223 1289.35 954.266C1296.46 948.369 1306.5 946.194 1314.16 941.453C1317.85 939.171 1322.58 942.117 1321.94 946.438L1321.91 946.645C1320.77 947.113 1319.65 947.658 1318.58 948.267C1317.96 948.619 1317.36 948.992 1316.77 949.387C1313.41 951.634 1314.57 956.896 1318.56 957.513L1318.65 957.527C1318.71 957.536 1318.77 957.546 1318.83 957.555C1316.87 962.251 1298.23 968.875 1294.82 972.635C1291.5 990.77 1293.13 990.23 1277.84 984.955H1277.83C1276.17 992.303 1273.73 999.483 1270.59 1006.33L1244.7 1006.34C1244.6 1006.04 1244.52 1005.74 1244.44 1005.45C1246.83 1005.6 1249.24 1005.46 1251.6 1005.02C1249.68 1002.64 1247.76 1000.24 1245.84 997.862C1245.79 997.815 1245.75 997.768 1245.71 997.722L1245.69 997.685L1243.02 988.823C1243.23 986.857 1243.57 984.907 1244.04 982.989Z" fill="#171717"/>
<path d="M958.014 114.634C958.014 172.865 911.266 220.062 853.61 220.062C795.953 220.062 749.205 172.865 749.205 114.634C749.205 56.4035 795.953 9.20654 853.61 9.20654C911.266 9.20654 958.014 56.4035 958.014 114.634Z" fill="#3348F2" stroke="black"/>
<path d="M385.13 216.209C443.068 216.209 490.035 168.783 490.035 110.281C490.035 51.7787 443.068 4.35327 385.13 4.35327C327.193 4.35327 280.225 51.7787 280.225 110.281C280.225 168.783 327.193 216.209 385.13 216.209Z" fill="#3348F2"/>
<path d="M862.761 169.843C862.761 174.943 858.668 179.069 853.629 179.069C848.59 179.069 844.497 174.943 844.497 169.843C844.497 164.743 848.59 160.617 853.629 160.617C858.668 160.617 862.761 164.743 862.761 169.843Z" fill="white" stroke="black"/>
<path d="M853.093 49.6253C852.675 52.4266 852.798 54.2206 853.045 57.8198C853.065 58.1162 853.086 58.425 853.108 58.7475C853.394 62.9894 853.792 69.6872 853.797 82.4716C853.8 91.2431 854.419 101.049 854.992 110.131C855.257 114.314 855.511 118.343 855.691 122.048C855.978 127.937 856.076 132.994 855.737 136.572C855.567 138.366 855.29 139.744 854.896 140.659C854.498 141.584 854.058 141.882 853.619 141.882C853.513 141.882 853.286 141.797 852.959 141.307C852.647 140.841 852.325 140.125 851.996 139.165C851.339 137.25 850.691 134.488 850.01 131.121C849.434 128.276 848.839 125.018 848.196 121.501C848.079 120.861 847.961 120.212 847.84 119.555C847.059 115.295 846.206 110.717 845.238 106.089C843.303 96.8379 840.902 87.3586 837.682 79.7911C836.072 76.0068 834.249 72.6809 832.162 70.0958C830.076 67.5108 827.706 65.6415 824.999 64.8196C822.011 63.9125 820.379 62.7299 819.672 61.4779C818.984 60.2592 819.106 58.8485 819.946 57.2861C820.791 55.7153 822.333 54.0572 824.346 52.4472C826.353 50.8421 828.799 49.3069 831.419 47.974C836.672 45.3011 842.547 43.4787 846.891 43.4925C849.067 43.4994 850.773 43.9665 851.847 44.9228C852.892 45.8533 853.434 47.3367 853.093 49.6253Z" fill="white" stroke="black"/>
<path d="M1203.43 997.761L1189.44 997.765L1182.77 934.799L1203.41 934.793L1203.43 997.761Z" fill="#FFB6B6"/>
<path d="M1155.51 997.41C1155.08 998.267 1154.85 1001.03 1154.85 1002.03C1154.85 1005.09 1156.98 1007.57 1159.6 1007.56L1202.91 1007.55C1204.69 1007.55 1206.14 1005.85 1206.14 1003.77L1206.14 1001.66C1206.14 1001.66 1208.28 995.334 1203.87 987.538C1203.87 987.538 1198.39 993.646 1190.19 984.086L1187.78 978.979L1170.3 993.915L1160.6 995.311C1158.48 995.617 1156.6 995.266 1155.51 997.41Z" fill="#2F2E41"/>
<path d="M1143.91 943.906L1129.29 949.139L1103.25 891.984L1124.83 884.26L1143.91 943.906Z" fill="#FFB6B6"/>
<path d="M1093.71 961.487C1093.52 962.461 1094.11 965.164 1094.42 966.107C1095.34 969.006 1098.32 970.56 1101.06 969.579L1146.33 953.371C1148.2 952.701 1149.2 950.556 1148.57 948.578L1147.93 946.585C1147.93 946.585 1148.25 939.791 1141.28 934.056C1141.28 934.056 1137.4 941.891 1125.94 935.898L1121.86 931.964L1108.11 952.649L1098.4 957.595C1096.28 958.677 1094.2 959.048 1093.71 961.487Z" fill="#2F2E41"/>
<path d="M1120.07 578.631L1090.14 683.498L1054.8 777.826L1110.75 912.533L1131.49 902.772L1106.67 779.026L1158.73 695.056L1183.02 957.188L1203.77 955.961L1231.9 639.553L1235.92 570.663L1120.07 578.631Z" fill="#2F2E41"/>
<path d="M1210.48 346.329L1166.68 354.879L1163.23 375.608L1136.72 389.03L1122.94 541.442C1122.94 541.442 1099.9 573.152 1118.34 582.899L1235.91 570.663C1235.91 570.663 1241.67 548.119 1235.91 545.98C1230.14 543.842 1230.12 489.993 1230.12 489.993L1256.6 379.232L1217.4 364.615L1210.48 346.329Z" fill="#3348F2"/>
<path d="M1184.65 345.928C1204.18 345.928 1220.02 329.179 1220.02 308.517C1220.02 287.855 1204.18 271.105 1184.65 271.105C1165.11 271.105 1149.28 287.855 1149.28 308.517C1149.28 329.179 1165.11 345.928 1184.65 345.928Z" fill="#FFB6B6"/>
<path d="M1208.07 314.07C1205.25 315.704 1207.93 323.507 1206.16 324.182C1204.12 324.961 1196.69 316.01 1196.6 305.985C1196.57 302.95 1197.23 301.493 1196.59 297.896C1195.76 293.19 1193.21 287.639 1190.86 287.787C1189.46 287.874 1188.09 289.966 1187.99 291.832C1187.85 294.448 1190.25 295.478 1189.9 296.887C1189.24 299.571 1179.16 301.424 1175.56 296.892C1172.75 293.339 1174.91 287.101 1173.65 286.782C1172.72 286.546 1171.72 289.981 1167.92 293.862C1166.48 295.324 1164.35 297.498 1163.14 296.897C1161.39 296.027 1162.66 289.901 1162.18 289.819C1161.78 289.752 1161.53 294.059 1159.31 297.909C1156.46 302.857 1150.59 306.67 1147.84 304.991C1146.16 303.963 1146.03 301.1 1145.93 298.925C1145.72 294.344 1139.42 283.807 1141.05 278.906C1144.37 268.931 1150.05 275.962 1152.61 272.634C1156.09 268.127 1159.21 270.55 1165.04 265.551C1170.73 260.668 1170.78 255.759 1174.59 255.436C1178.03 255.146 1179.25 259.02 1183.2 258.467C1186.54 257.998 1187.27 254.993 1189.89 255.431C1192.28 255.831 1192.44 258.478 1195.63 259.473C1197.66 260.108 1198.1 259.189 1200.41 259.471C1205.19 260.059 1208.41 264.671 1209.01 265.535C1211.33 268.866 1210.43 270.27 1212.84 273.623C1214.91 276.514 1219.51 275.286 1221.24 276.73C1226.88 281.448 1229.31 290.15 1229.36 300.067C1229.39 307.004 1228.54 310.508 1226.63 319.264C1225.18 325.912 1218.47 334.503 1214.77 338.334C1213.78 339.363 1210.99 342.245 1209.04 341.37C1207.18 340.54 1207.12 336.807 1207.12 336.315C1207.11 334.62 1207.54 332.523 1210.94 327.213C1214.52 321.636 1215.94 320.999 1215.72 319.122C1215.34 315.805 1210.32 312.767 1208.07 314.07Z" fill="#2F2E41"/>
<path d="M1084.7 662.866C1083.6 672.617 1087.46 681.123 1093.33 681.864C1099.19 682.605 1104.84 675.301 1105.94 665.549C1106.42 661.281 1105.95 657.251 1104.78 654.007L1108.96 612.626L1090.56 610.967L1088.39 651.937C1086.53 654.798 1085.18 658.597 1084.7 662.866Z" fill="#FFB6B6"/>
<path d="M1137.59 388.045C1137.59 388.045 1128.06 388.188 1121.74 401.228C1118.39 408.157 1100.44 537.73 1100.44 537.73L1083.91 643.874L1112.07 644.024L1134.01 543.503L1152.47 485.202L1137.59 388.045Z" fill="#3348F2"/>
<path d="M1217.26 647.157C1214.59 656.423 1216.97 665.386 1222.57 667.176C1228.17 668.966 1234.88 662.905 1237.55 653.638C1238.72 649.582 1238.92 645.584 1238.31 642.22L1249.17 602.806L1231.49 597.838L1222.66 637.22C1220.38 639.659 1218.43 643.1 1217.26 647.157Z" fill="#FFB6B6"/>
<path d="M1236.35 380.76C1236.35 380.76 1249.95 369.759 1261.29 386.859C1272.63 403.959 1277.21 544.458 1277.21 544.458L1245.5 631.213L1221.69 622.67L1244.33 516.37L1204.62 435.75L1236.35 380.76Z" fill="#3348F2"/>
<path d="M765.632 239.818L756.154 260.039C767.612 251.743 785.509 244.591 799.751 240.761C786.481 234.289 770.244 223.853 760.543 213.522L765.994 234.888C702.083 221.743 656.187 172.236 656.168 115.524L653.859 114.722C653.879 173.959 699.14 226.398 765.632 239.818Z" fill="#CCCCCC"/>
<path d="M332.135 158.034C334.438 160.33 335.59 161.477 336.874 162.008C338.586 162.715 340.508 162.715 342.22 162.008C343.504 161.477 344.656 160.33 346.959 158.034L371.97 133.107C374.273 130.812 375.425 129.664 376.709 129.134C378.421 128.426 380.343 128.426 382.055 129.134C383.339 129.664 384.491 130.812 386.794 133.107L411.805 158.034C414.108 160.33 415.26 161.477 416.544 162.008C418.256 162.715 420.179 162.715 421.891 162.008C423.175 161.477 424.326 160.33 426.629 158.034L427.246 157.419C429.564 155.11 430.722 153.955 431.257 152.666C431.971 150.948 431.971 149.016 431.257 147.298C430.722 146.009 429.564 144.854 427.246 142.545L402.336 117.718C400.019 115.409 398.86 114.254 398.325 112.965C397.611 111.247 397.611 109.315 398.325 107.597C398.86 106.308 400.019 105.153 402.336 102.844L427.246 78.0169C429.564 75.7075 430.722 74.5528 431.257 73.264C431.971 71.5456 431.971 69.6139 431.257 67.8955C430.722 66.6067 429.564 65.452 427.246 63.1426L426.629 62.5276C424.326 60.2322 423.175 59.0845 421.891 58.5539C420.179 57.8464 418.256 57.8464 416.544 58.5539C415.26 59.0845 414.108 60.2322 411.805 62.5276L386.794 87.4544C384.491 89.7498 383.339 90.8975 382.055 91.4281C380.343 92.1355 378.421 92.1355 376.709 91.4281C375.425 90.8975 374.273 89.7498 371.97 87.4544L346.959 62.5276C344.656 60.2322 343.504 59.0845 342.22 58.5539C340.508 57.8464 338.586 57.8464 336.874 58.5539C335.59 59.0845 334.438 60.2322 332.135 62.5276L331.518 63.1426C329.201 65.452 328.042 66.6067 327.507 67.8955C326.793 69.6139 326.793 71.5456 327.507 73.264C328.042 74.5528 329.201 75.7075 331.518 78.0169L356.428 102.844C358.746 105.153 359.904 106.308 360.439 107.597C361.153 109.315 361.153 111.247 360.439 112.965C359.904 114.254 358.746 115.409 356.428 117.718L331.518 142.545C329.201 144.854 328.042 146.009 327.507 147.298C326.793 149.016 326.793 150.948 327.507 152.666C328.042 153.955 329.201 155.11 331.518 157.419L332.135 158.034ZM379.382 220.562C364.075 220.562 349.69 217.667 336.227 211.877C322.765 206.087 311.054 198.23 301.095 188.305C291.136 178.379 283.252 166.708 277.443 153.29C271.634 139.873 268.729 125.536 268.729 110.281C268.729 95.0253 271.634 80.6888 277.443 67.2713C283.252 53.8538 291.136 42.1824 301.095 32.2571C311.054 22.3319 322.765 14.4744 336.227 8.68462C349.69 2.89487 364.075 0 379.382 0C394.689 0 409.074 2.89487 422.537 8.68462C436 14.4744 447.71 22.3319 457.669 32.2571C467.628 42.1824 475.512 53.8538 481.321 67.2713C487.131 80.6888 490.035 95.0253 490.035 110.281C490.035 125.536 487.131 139.873 481.321 153.29C475.512 166.708 467.628 178.379 457.669 188.305C447.71 198.23 436 206.087 422.537 211.877C409.074 217.667 394.689 220.562 379.382 220.562ZM379.382 198.506C404.095 198.506 425.026 189.959 442.178 172.865C459.329 155.772 467.905 134.91 467.905 110.281C467.905 85.6515 459.329 64.79 442.178 47.6965C425.026 30.6029 404.095 22.0562 379.382 22.0562C354.67 22.0562 333.738 30.6029 316.586 47.6965C299.435 64.79 290.86 85.6515 290.86 110.281C290.86 134.91 299.435 155.772 316.586 172.865C333.738 189.959 354.67 198.506 379.382 198.506Z" fill="#171717"/>
<path d="M1114.31 964.818C1114.7 964.205 1115.6 964.205 1115.99 964.818L1142.79 1006.59C1143.22 1007.25 1142.74 1008.13 1141.95 1008.13H1088.36C1087.57 1008.13 1087.09 1007.25 1087.52 1006.59L1114.31 964.818Z" fill="#171717"/>
<defs>
<filter id="filter0_di_39_438" x="60.6674" y="84.1616" width="1025.43" height="936.681" filterUnits="userSpaceOnUse" color-interpolation-filters="sRGB">
<feFlood flood-opacity="0" result="BackgroundImageFix"/>
<feColorMatrix in="SourceAlpha" type="matrix" values="0 0 0 0 0 0 0 0 0 0 0 0 0 0 0 0 0 0 127 0" result="hardAlpha"/>
<feOffset dy="4"/>
<feGaussianBlur stdDeviation="2"/>
<feComposite in2="hardAlpha" operator="out"/>
<feColorMatrix type="matrix" values="0 0 0 0 0 0 0 0 0 0 0 0 0 0 0 0 0 0 0.25 0"/>
<feBlend mode="normal" in2="BackgroundImageFix" result="effect1_dropShadow_39_438"/>
<feBlend mode="normal" in="SourceGraphic" in2="effect1_dropShadow_39_438" result="shape"/>
<feColorMatrix in="SourceAlpha" type="matrix" values="0 0 0 0 0 0 0 0 0 0 0 0 0 0 0 0 0 0 127 0" result="hardAlpha"/>
<feOffset dy="4"/>
<feGaussianBlur stdDeviation="2"/>
<feComposite in2="hardAlpha" operator="arithmetic" k2="-1" k3="1"/>
<feColorMatrix type="matrix" values="0 0 0 0 0 0 0 0 0 0 0 0 0 0 0 0 0 0 0.25 0"/>
<feBlend mode="normal" in2="shape" result="effect2_innerShadow_39_438"/>
</filter>
<filter id="filter1_i_39_438" x="247.173" y="365.668" width="908.218" height="475.596" filterUnits="userSpaceOnUse" color-interpolation-filters="sRGB">
<feFlood flood-opacity="0" result="BackgroundImageFix"/>
<feBlend mode="normal" in="SourceGraphic" in2="BackgroundImageFix" result="shape"/>
<feColorMatrix in="SourceAlpha" type="matrix" values="0 0 0 0 0 0 0 0 0 0 0 0 0 0 0 0 0 0 127 0" result="hardAlpha"/>
<feOffset dy="4"/>
<feGaussianBlur stdDeviation="2"/>
<feComposite in2="hardAlpha" operator="arithmetic" k2="-1" k3="1"/>
<feColorMatrix type="matrix" values="0 0 0 0 0 0 0 0 0 0 0 0 0 0 0 0 0 0 0.25 0"/>
<feBlend mode="normal" in2="shape" result="effect1_innerShadow_39_438"/>
</filter>
<linearGradient id="paint0_linear_39_438" x1="64.6674" y1="548.502" x2="1082.1" y2="548.502" gradientUnits="userSpaceOnUse">
<stop stop-color="white"/>
<stop offset="1" stop-color="#171717"/>
</linearGradient>
</defs>
</svg>
