<svg width="1356" height="1027" viewBox="0 0 1356 1027" fill="none" xmlns="http://www.w3.org/2000/svg">
<g filter="url(#filter0_di_39_439)">
<ellipse cx="674.002" cy="509.317" rx="538.593" ry="509.317" fill="url(#paint0_linear_39_439)"/>
</g>
<path d="M0 38.4241C0 35.6627 2.23858 33.4241 5 33.4241H484.906C487.668 33.4241 489.906 35.6626 489.906 38.4241V708.044C489.906 710.805 487.668 713.044 484.906 713.044H5.00001C2.23858 713.044 0 710.805 0 708.044V38.4241Z" fill="#3348F2"/>
<path d="M30.8333 96.6133C30.8333 77.7571 30.8333 68.329 36.6912 62.4711C42.5491 56.6133 51.9772 56.6133 70.8333 56.6133H417.36C436.216 56.6133 445.644 56.6133 451.502 62.4711C457.36 68.329 457.36 77.7571 457.36 96.6133V644.503C457.36 663.359 457.36 672.788 451.502 678.645C445.644 684.503 436.216 684.503 417.36 684.503H70.8334C51.9772 684.503 42.5491 684.503 36.6912 678.645C30.8333 672.788 30.8333 663.359 30.8333 644.503V96.6133Z" fill="#CACACA"/>
<path d="M417.032 271.116H68.2497C65.1419 271.111 62.1626 269.211 59.9651 265.833C57.7675 262.455 56.5314 257.875 56.5278 253.098V174.58C56.5314 169.803 57.7675 165.223 59.9651 161.846C62.1626 158.468 65.1419 156.568 68.2497 156.562H417.032C420.14 156.568 423.12 158.468 425.317 161.846C427.515 165.223 428.751 169.803 428.754 174.58V253.098C428.751 257.875 427.515 262.455 425.317 265.833C423.12 269.211 420.14 271.111 417.032 271.116Z" fill="#E6E6E6"/>
<path d="M382.553 254.752H76.8577C73.763 254.747 70.7961 253.024 68.6078 249.961C66.4196 246.898 65.1886 242.745 65.1851 238.414V189.265C65.1886 184.934 66.4196 180.781 68.6078 177.718C70.7961 174.655 73.763 172.932 76.8577 172.927H408.426C411.521 172.932 414.488 174.655 416.676 177.718C418.864 180.781 420.095 184.934 420.099 189.265V202.201C420.088 216.133 416.128 229.491 409.09 239.342C402.051 249.194 392.508 254.736 382.553 254.752Z" fill="white"/>
<path d="M278.553 205.657H137.478C136.672 205.657 135.898 205.226 135.327 204.459C134.757 203.691 134.436 202.651 134.436 201.566C134.436 200.481 134.757 199.44 135.327 198.673C135.898 197.906 136.672 197.475 137.478 197.475H278.553C279.36 197.475 280.134 197.906 280.704 198.673C281.275 199.44 281.595 200.481 281.595 201.566C281.595 202.651 281.275 203.691 280.704 204.459C280.134 205.226 279.36 205.657 278.553 205.657Z" fill="#3348F2"/>
<path d="M270.833 95.1199H129.758C128.951 95.1199 128.177 94.6889 127.607 93.9216C127.036 93.1544 126.715 92.1137 126.715 91.0287C126.715 89.9436 127.036 88.903 127.607 88.1358C128.177 87.3685 128.951 86.9375 129.758 86.9375H270.833C271.639 86.9375 272.413 87.3685 272.984 88.1358C273.554 88.903 273.875 89.9436 273.875 91.0287C273.875 92.1137 273.554 93.1544 272.984 93.9216C272.413 94.6889 271.639 95.1199 270.833 95.1199Z" fill="#3348F2"/>
<path d="M347.835 230.204H137.448C136.649 230.204 135.883 229.773 135.318 229.006C134.753 228.239 134.436 227.198 134.436 226.113C134.436 225.028 134.753 223.988 135.318 223.22C135.883 222.453 136.649 222.022 137.448 222.022H347.835C348.634 222.022 349.4 222.453 349.965 223.22C350.529 223.988 350.847 225.028 350.847 226.113C350.847 227.198 350.529 228.239 349.965 229.006C349.4 229.773 348.634 230.204 347.835 230.204Z" fill="#E6E6E6"/>
<path d="M340.114 122.97H129.728C128.929 122.97 128.163 122.539 127.598 121.771C127.033 121.004 126.715 119.964 126.715 118.879C126.715 117.793 127.033 116.753 127.598 115.986C128.163 115.218 128.929 114.787 129.728 114.787H340.114C340.913 114.787 341.679 115.218 342.244 115.986C342.809 116.753 343.126 117.793 343.126 118.879C343.126 119.964 342.809 121.004 342.244 121.771C341.679 122.539 340.913 122.97 340.114 122.97Z" fill="#3348F2"/>
<path d="M417.032 402.035H68.2497C65.142 402.03 62.1626 400.129 59.9651 396.752C57.7676 393.374 56.5314 388.794 56.5279 384.017V305.499C56.5314 300.722 57.7676 296.142 59.9651 292.765C62.1626 289.387 65.142 287.487 68.2497 287.481H417.032C420.14 287.487 423.12 289.387 425.317 292.765C427.515 296.142 428.751 300.722 428.754 305.499V384.017C428.751 388.794 427.515 393.374 425.317 396.752C423.12 400.129 420.14 402.03 417.032 402.035Z" fill="#E6E6E6"/>
<path d="M382.553 385.67H76.8577C73.763 385.665 70.7961 383.942 68.6078 380.88C66.4195 377.817 65.1886 373.664 65.185 369.332V320.184C65.1886 315.853 66.4195 311.7 68.6078 308.637C70.7961 305.574 73.763 303.851 76.8577 303.846H408.426C411.521 303.851 414.488 305.574 416.676 308.637C418.864 311.7 420.095 315.853 420.099 320.184V333.119C420.088 347.052 416.128 360.409 409.089 370.261C402.051 380.113 392.507 385.655 382.553 385.67Z" fill="white"/>
<path d="M278.553 336.576H137.478C136.672 336.576 135.898 336.145 135.327 335.378C134.757 334.61 134.436 333.57 134.436 332.485C134.436 331.4 134.757 330.359 135.327 329.592C135.898 328.825 136.672 328.394 137.478 328.394H278.553C279.36 328.394 280.134 328.825 280.704 329.592C281.275 330.359 281.595 331.4 281.595 332.485C281.595 333.57 281.275 334.61 280.704 335.378C280.134 336.145 279.36 336.576 278.553 336.576Z" fill="#3348F2"/>
<path d="M347.835 361.123H137.448C136.649 361.123 135.883 360.692 135.318 359.925C134.753 359.157 134.436 358.117 134.436 357.032C134.436 355.947 134.753 354.906 135.318 354.139C135.883 353.371 136.649 352.94 137.448 352.94H347.835C348.634 352.94 349.4 353.371 349.965 354.139C350.529 354.906 350.847 355.947 350.847 357.032C350.847 358.117 350.529 359.157 349.965 359.925C349.4 360.692 348.634 361.123 347.835 361.123Z" fill="#E6E6E6"/>
<path d="M420.933 531.43H72.1507C69.0429 531.424 66.0636 529.524 63.8661 526.146C61.6685 522.769 60.4324 518.189 60.4288 513.412V434.894C60.4324 430.117 61.6685 425.537 63.8661 422.159C66.0636 418.782 69.0429 416.881 72.1507 416.876H420.933C424.041 416.881 427.021 418.782 429.218 422.159C431.416 425.537 432.652 430.117 432.655 434.894V513.412C432.652 518.189 431.416 522.769 429.218 526.146C427.021 529.524 424.041 531.424 420.933 531.43Z" fill="#E6E6E6"/>
<path d="M386.454 515.065H80.7581C77.6634 515.06 74.6965 513.337 72.5082 510.274C70.3199 507.211 69.089 503.059 69.0854 498.727V449.579C69.089 445.247 70.3199 441.094 72.5082 438.031C74.6965 434.969 77.6634 433.246 80.7581 433.241H412.326C415.421 433.246 418.388 434.969 420.576 438.031C422.765 441.094 423.996 445.247 423.999 449.579V462.514C423.988 476.446 420.029 489.804 412.99 499.656C405.951 509.508 396.408 515.049 386.454 515.065Z" fill="white"/>
<path d="M282.455 465.971H141.38C140.573 465.971 139.799 465.539 139.229 464.772C138.658 464.005 138.338 462.964 138.338 461.879C138.338 460.794 138.658 459.754 139.229 458.986C139.799 458.219 140.573 457.788 141.38 457.788H282.455C283.261 457.788 284.035 458.219 284.606 458.986C285.176 459.754 285.497 460.794 285.497 461.879C285.497 462.964 285.176 464.005 284.606 464.772C284.035 465.539 283.261 465.971 282.455 465.971Z" fill="#3348F2"/>
<path d="M351.736 490.518H141.35C140.551 490.518 139.785 490.087 139.22 489.32C138.655 488.552 138.338 487.512 138.338 486.427C138.338 485.342 138.655 484.301 139.22 483.534C139.785 482.766 140.551 482.335 141.35 482.335H351.736C352.535 482.335 353.301 482.766 353.866 483.534C354.431 484.301 354.748 485.342 354.748 486.427C354.748 487.512 354.431 488.552 353.866 489.32C353.301 490.087 352.535 490.518 351.736 490.518Z" fill="#E6E6E6"/>
<path d="M420.934 662.636H72.1508C69.0431 662.63 66.0637 660.73 63.8662 657.353C61.6687 653.975 60.4325 649.395 60.429 644.618V566.1C60.4325 561.323 61.6687 556.743 63.8662 553.365C66.0637 549.988 69.0431 548.088 72.1508 548.082H420.934C424.041 548.088 427.021 549.988 429.218 553.365C431.416 556.743 432.652 561.323 432.655 566.1V644.618C432.652 649.395 431.416 653.975 429.218 657.353C427.021 660.73 424.041 662.63 420.934 662.636Z" fill="#E6E6E6"/>
<path d="M386.454 646.271H80.7581C77.6634 646.266 74.6965 644.543 72.5082 641.48C70.3199 638.417 69.089 634.265 69.0854 629.933V580.785C69.089 576.453 70.3199 572.3 72.5082 569.238C74.6965 566.175 77.6634 564.452 80.7581 564.447H412.326C415.421 564.452 418.388 566.175 420.576 569.238C422.765 572.3 423.996 576.453 423.999 580.785V593.72C423.988 607.652 420.029 621.01 412.99 630.862C405.951 640.714 396.408 646.255 386.454 646.271Z" fill="white"/>
<path d="M282.455 597.177H141.38C140.573 597.177 139.799 596.746 139.229 595.978C138.658 595.211 138.338 594.17 138.338 593.085C138.338 592 138.658 590.96 139.229 590.192C139.799 589.425 140.573 588.994 141.38 588.994H282.455C283.261 588.994 284.035 589.425 284.606 590.192C285.176 590.96 285.497 592 285.497 593.085C285.497 594.17 285.176 595.211 284.606 595.978C284.035 596.746 283.261 597.177 282.455 597.177Z" fill="#3348F2"/>
<path d="M351.736 621.724H141.35C140.551 621.724 139.785 621.293 139.22 620.526C138.655 619.758 138.338 618.718 138.338 617.633C138.338 616.548 138.655 615.507 139.22 614.74C139.785 613.973 140.551 613.542 141.35 613.542H351.736C352.535 613.542 353.301 613.973 353.866 614.74C354.431 615.507 354.748 616.548 354.748 617.633C354.748 618.718 354.431 619.758 353.866 620.526C353.301 621.293 352.535 621.724 351.736 621.724Z" fill="#E6E6E6"/>
<path d="M583.001 311.951C575.489 269.891 587.316 222.04 620.19 196.58C618.326 243.071 632.243 288.752 659.476 325.542C670.028 339.69 683.173 354.277 682.764 372.217C682.511 383.38 676.74 393.779 669.135 401.614C661.529 409.449 652.161 415.097 642.905 420.657L641.464 423.002C614.33 390.985 590.513 354.012 583.001 311.951Z" fill="#171717"/>
<path d="M620.789 197.224C606.977 229.559 603.257 265.625 610.155 300.299C611.513 307.791 613.992 315.012 617.5 321.696C621.118 328.093 626.308 333.358 632.53 336.947C638.266 340.414 644.518 343.266 649.349 348.133C651.787 350.662 653.686 353.702 654.922 357.053C656.158 360.403 656.702 363.99 656.52 367.576C656.289 376.525 652.998 384.854 649.509 392.881C645.634 401.794 641.476 410.988 641.727 421.008C641.757 422.222 639.955 422.201 639.924 420.988C639.487 403.554 651.536 389.553 654.22 372.824C655.473 365.018 654.485 356.77 649.239 350.719C644.651 345.428 638.207 342.481 632.369 339.023C626.251 335.615 621.023 330.692 617.142 324.684C613.32 318.208 610.58 311.099 609.038 303.661C605.311 286.973 604.116 269.777 605.496 252.701C606.968 233.203 611.616 214.112 619.242 196.255C619.714 195.15 621.258 196.126 620.789 197.224Z" fill="#969696"/>
<path d="M607.306 289.271C601.588 289.692 595.913 287.973 591.294 284.421C586.676 280.868 583.415 275.715 582.093 269.88C581.83 268.698 583.573 268.214 583.837 269.397C585.058 274.833 588.096 279.634 592.403 282.932C596.71 286.231 602.002 287.81 607.325 287.385C608.481 287.294 608.456 289.18 607.306 289.271Z" fill="#9D9999"/>
<path d="M629.4 335.589C637.162 326.406 641.331 314.5 641.075 302.245C641.048 301.03 642.851 301.052 642.877 302.264C643.121 315.018 638.759 327.399 630.661 336.936C629.888 337.845 628.631 336.493 629.4 335.589Z" fill="#9D9999"/>
<path d="M609.079 234.374C611.324 234.693 613.61 234.424 615.731 233.591C617.852 232.758 619.742 231.387 621.231 229.601C621.992 228.683 623.249 230.036 622.492 230.949C620.838 232.914 618.749 234.425 616.408 235.351C614.066 236.277 611.544 236.589 609.06 236.26C608.824 236.249 608.6 236.145 608.434 235.968C608.269 235.791 608.174 235.555 608.169 235.307C608.172 235.057 608.27 234.819 608.441 234.645C608.611 234.47 608.841 234.373 609.079 234.374Z" fill="#9D9999"/>
<path d="M754.623 231.371C754.163 231.959 753.704 232.546 753.248 233.149C747.108 241.081 741.594 249.522 736.76 258.389C736.376 259.068 735.996 259.763 735.632 260.452C724.204 281.944 716.691 305.468 713.472 329.829C712.2 339.523 711.635 349.306 711.781 359.09C711.984 372.603 713.232 387.238 709.273 399.666C708.874 400.968 708.398 402.242 707.848 403.482L644.31 424.66C644.142 424.632 643.979 424.619 643.81 424.592L641.31 425.559C641.269 425.055 641.237 424.531 641.196 424.027C641.171 423.735 641.16 423.438 641.135 423.145C641.122 422.949 641.111 422.752 641.089 422.576C641.085 422.511 641.081 422.445 641.081 422.395C641.059 422.218 641.057 422.052 641.04 421.891C640.851 418.964 640.676 416.032 640.531 413.09C640.527 413.075 640.526 413.075 640.536 413.055C639.445 390.65 640.133 367.953 644.092 346.087C644.212 345.43 644.325 344.757 644.474 344.089C646.311 334.243 648.914 324.571 652.257 315.169C654.103 310.027 656.197 304.986 658.531 300.065C664.584 287.363 672.51 275.736 682.017 265.61C700.972 245.428 725.887 231.812 752.583 231.383C753.266 231.372 753.935 231.366 754.623 231.371Z" fill="#171717"/>
<path d="M754.737 232.262C725.1 249.381 701.372 275.834 686.924 307.864C683.697 314.702 681.52 322.029 680.474 329.575C679.682 336.961 680.795 344.434 683.697 351.218C686.282 357.6 689.632 363.815 690.689 370.743C691.18 374.298 690.946 377.921 690.005 381.375C689.063 384.828 687.434 388.035 685.224 390.784C679.889 397.784 672.468 402.36 665.062 406.572C656.839 411.249 648.227 415.97 642.661 424.129C641.986 425.117 640.56 423.965 641.233 422.978C650.918 408.782 668.596 405.191 680.368 393.525C685.861 388.082 689.818 380.874 689.112 372.738C688.494 365.624 685.045 359.212 682.374 352.774C679.45 346.2 678.109 338.977 678.469 331.735C679.144 324.157 681.048 316.755 684.098 309.845C690.726 294.174 699.669 279.69 710.598 266.925C722.995 252.284 737.694 239.97 754.059 230.514C755.073 229.929 755.744 231.681 754.737 232.262Z" fill="#9D9999"/>
<path d="M690.996 297.264C686.188 293.999 682.647 289.052 681.003 283.307C679.36 277.562 679.723 271.393 682.026 265.902C682.495 264.793 684.166 265.504 683.695 266.615C681.541 271.724 681.204 277.471 682.745 282.817C684.286 288.164 687.602 292.758 692.097 295.771C693.073 296.427 691.967 297.917 690.996 297.264Z" fill="#9D9999"/>
<path d="M681.979 348.162C693.462 345.719 703.643 338.839 710.492 328.892C711.17 327.906 712.597 329.058 711.92 330.043C704.774 340.38 694.166 347.518 682.211 350.033C681.071 350.271 680.846 348.4 681.979 348.162Z" fill="white"/>
<path d="M724.007 254.55C725.616 256.219 727.595 257.444 729.768 258.114C731.941 258.785 734.239 258.881 736.456 258.393C737.593 258.139 737.817 260.011 736.688 260.263C734.236 260.79 731.698 260.681 729.296 259.946C726.893 259.21 724.7 257.871 722.907 256.044C722.724 255.886 722.605 255.662 722.575 255.416C722.544 255.171 722.604 254.922 722.743 254.721C722.889 254.524 723.104 254.396 723.341 254.364C723.578 254.331 723.817 254.399 724.007 254.55Z" fill="#969696"/>
<path d="M395.577 917.994C433.389 917.994 464.042 885.927 464.042 846.371C464.042 806.815 433.389 774.749 395.577 774.749C357.764 774.749 327.112 806.815 327.112 846.371C327.112 885.927 357.764 917.994 395.577 917.994Z" fill="#171717"/>
<path d="M1000.58 597.832L504.428 836.133C497.365 839.515 489.309 839.828 482.026 837.004C474.743 834.18 468.829 828.449 465.58 821.068L343.141 542.086C339.908 534.698 339.609 526.27 342.308 518.652C345.008 511.033 350.486 504.846 357.541 501.447L853.698 263.146C860.76 259.765 868.817 259.451 876.099 262.276C883.382 265.1 889.297 270.831 892.546 278.211L1014.99 557.193C1018.22 564.581 1018.52 573.009 1015.82 580.628C1013.12 588.246 1007.64 594.434 1000.58 597.832Z" fill="white"/>
<path d="M365.794 520.251C363.502 521.355 361.722 523.365 360.845 525.84C359.968 528.315 360.065 531.053 361.115 533.453L483.555 812.435C484.61 814.833 486.532 816.694 488.898 817.612C491.263 818.529 493.881 818.428 496.175 817.329L992.332 579.028C994.624 577.924 996.403 575.914 997.28 573.439C998.157 570.964 998.06 568.226 997.01 565.826L874.571 286.844C873.515 284.446 871.594 282.585 869.228 281.667C866.862 280.75 864.245 280.851 861.95 281.95L365.794 520.251Z" fill="#E7E7E7"/>
<path d="M1000.58 597.832L504.428 836.133C497.365 839.515 489.309 839.828 482.026 837.004C474.743 834.18 468.829 828.449 465.58 821.068L343.141 542.086C339.908 534.698 339.609 526.27 342.308 518.652C345.008 511.033 350.486 504.846 357.541 501.447L853.698 263.146C860.76 259.765 868.817 259.451 876.099 262.276C883.382 265.1 889.297 270.831 892.546 278.211L1014.99 557.193C1018.22 564.581 1018.52 573.009 1015.82 580.628C1013.12 588.246 1007.64 594.434 1000.58 597.832ZM358.811 504.34C352.489 507.386 347.579 512.93 345.16 519.758C342.741 526.585 343.009 534.137 345.906 540.758L468.345 819.74C471.257 826.354 476.557 831.49 483.083 834.02C489.61 836.551 496.829 836.271 503.158 833.24L999.315 594.939C1005.64 591.894 1010.55 586.349 1012.97 579.522C1015.39 572.694 1015.12 565.142 1012.22 558.521L889.78 279.539C886.869 272.925 881.569 267.79 875.042 265.259C868.516 262.728 861.296 263.009 854.968 266.039L358.811 504.34Z" fill="#CACACA"/>
<path d="M876.607 471.234L482.44 660.55C479.265 662.069 475.72 662.526 472.288 661.859C468.855 661.191 465.704 659.432 463.263 656.821L347.937 533.101C346.046 531.072 344.648 528.597 343.861 525.886C343.073 523.174 342.92 520.304 343.413 517.517C343.906 514.73 345.032 512.108 346.695 509.871C348.358 507.634 350.511 505.847 352.971 504.661L858.12 261.057C860.548 259.887 863.207 259.335 865.878 259.447C868.55 259.559 871.158 260.331 873.489 261.701C875.821 263.07 877.809 264.998 879.29 267.326C880.772 269.655 881.706 272.317 882.014 275.095L882.082 275.093L886.464 454.694C886.551 458.158 885.663 461.572 883.911 464.513C882.158 467.454 879.619 469.791 876.607 471.234ZM859.411 263.94L354.245 507.552C352.227 508.525 350.461 509.99 349.097 511.825C347.733 513.66 346.81 515.811 346.405 518.096C346.001 520.382 346.126 522.736 346.772 524.96C347.418 527.184 348.565 529.214 350.116 530.878L465.441 654.599C467.443 656.74 470.028 658.183 472.843 658.731C475.659 659.278 478.567 658.903 481.171 657.657L875.337 468.341C877.807 467.158 879.891 465.24 881.328 462.829C882.765 460.417 883.493 457.616 883.422 454.775L879.079 276.766C879.02 274.364 878.392 272.014 877.252 269.929C876.112 267.843 874.495 266.085 872.545 264.814C870.596 263.543 868.376 262.798 866.083 262.645C863.791 262.493 861.498 262.937 859.411 263.94Z" fill="#CACACA"/>
<path d="M629.429 727.346L506.623 786.329C505.732 786.758 504.769 786.999 503.788 787.038C502.808 787.078 501.83 786.915 500.91 786.558C499.99 786.202 499.146 785.66 498.427 784.962C497.707 784.265 497.126 783.426 496.717 782.493C496.307 781.56 496.078 780.552 496.041 779.527C496.004 778.501 496.161 777.478 496.503 776.516C496.844 775.554 497.363 774.672 498.031 773.92C498.698 773.168 499.501 772.561 500.393 772.133L623.199 713.151C624.998 712.289 627.051 712.209 628.906 712.93C630.761 713.65 632.266 715.111 633.092 716.993C633.918 718.874 633.996 721.021 633.309 722.962C632.622 724.904 631.226 726.48 629.429 727.346Z" fill="white"/>
<path d="M719.271 545.051C721.379 549.842 722.564 555.021 722.758 560.292C722.952 565.563 722.15 570.822 720.4 575.768C718.65 580.715 715.985 585.252 712.557 589.121C709.13 592.989 705.007 596.113 700.425 598.314C695.843 600.515 690.891 601.749 685.853 601.947C680.814 602.144 675.788 601.301 671.061 599.466C666.334 597.63 661.999 594.838 658.305 591.248C654.61 587.659 651.627 583.344 649.528 578.548" fill="#AEAEAE"/>
<path d="M953.56 1001.05H407.609C399.842 1001.04 392.395 997.81 386.903 992.065C381.411 986.319 378.322 978.529 378.313 970.404V663.424C378.322 655.298 381.411 647.508 386.903 641.763C392.395 636.018 399.842 632.786 407.609 632.776H953.56C961.327 632.786 968.773 636.018 974.265 641.763C979.757 647.508 982.847 655.298 982.856 663.424V970.404C982.847 978.529 979.758 986.319 974.266 992.065C968.773 997.81 961.327 1001.04 953.56 1001.05Z" fill="white"/>
<path d="M407.609 653.468C405.086 653.471 402.667 654.521 400.883 656.387C399.098 658.254 398.095 660.784 398.092 663.424V970.404C398.095 973.044 399.098 975.575 400.883 977.441C402.667 979.308 405.086 980.358 407.609 980.361H953.56C956.083 980.358 958.502 979.308 960.286 977.441C962.071 975.575 963.074 973.044 963.077 970.404V663.424C963.074 660.784 962.071 658.254 960.286 656.387C958.502 654.521 956.083 653.471 953.56 653.468H407.609Z" fill="#3348F2"/>
<path d="M953.56 1001.05H407.609C399.842 1001.04 392.395 997.81 386.903 992.065C381.411 986.319 378.322 978.529 378.313 970.404V663.424C378.322 655.298 381.411 647.508 386.903 641.763C392.395 636.018 399.842 632.786 407.609 632.776H953.56C961.327 632.786 968.773 636.018 974.265 641.763C979.757 647.508 982.847 655.298 982.856 663.424V970.404C982.847 978.529 979.758 986.319 974.266 992.065C968.773 997.81 961.327 1001.04 953.56 1001.05ZM407.609 635.96C400.649 635.968 393.976 638.864 389.054 644.013C384.132 649.161 381.364 656.142 381.356 663.424V970.404C381.364 977.685 384.132 984.666 389.054 989.815C393.976 994.963 400.649 997.86 407.609 997.868H953.56C960.52 997.86 967.193 994.963 972.115 989.815C977.036 984.666 979.805 977.685 979.813 970.404V663.424C979.805 656.142 977.036 649.161 972.115 644.013C967.193 638.864 960.52 635.968 953.56 635.96H407.609Z" fill="#3F3D56"/>
<path d="M891.383 831.886H457.658C454.167 831.88 450.762 830.748 447.909 828.643C445.056 826.539 442.894 823.565 441.717 820.126L386.256 657.352C385.346 654.682 385.063 651.823 385.429 649.015C385.795 646.207 386.8 643.532 388.36 641.215C389.919 638.897 391.988 637.006 394.392 635.699C396.796 634.391 399.465 633.707 402.174 633.703L958.411 632.809C961.085 632.805 963.721 633.464 966.104 634.732C968.488 636 970.55 637.84 972.122 640.102C973.695 642.364 974.732 644.984 975.15 647.747C975.568 650.509 975.355 653.336 974.527 655.996L974.59 656.024L906.938 821.156C905.636 824.342 903.467 827.058 900.701 828.965C897.936 830.873 894.695 831.888 891.383 831.886ZM958.435 635.992L402.178 636.886C399.956 636.89 397.767 637.451 395.795 638.523C393.824 639.595 392.127 641.146 390.848 643.047C389.568 644.948 388.744 647.142 388.444 649.445C388.143 651.748 388.376 654.093 389.122 656.283L444.583 819.057C445.548 821.877 447.322 824.317 449.662 826.043C452.002 827.769 454.794 828.698 457.658 828.702H891.383C894.1 828.705 896.758 827.872 899.026 826.307C901.294 824.742 903.073 822.515 904.141 819.902L971.193 656.233C972.098 654.024 972.464 651.615 972.26 649.222C972.056 646.828 971.287 644.525 970.023 642.519C968.758 640.513 967.038 638.867 965.015 637.728C962.993 636.588 960.732 635.992 958.435 635.992Z" fill="#3F3D56"/>
<path d="M564.599 956.748H429.469C427.489 956.748 425.59 955.925 424.19 954.461C422.789 952.996 422.003 951.01 422.003 948.938C422.003 946.867 422.789 944.881 424.19 943.416C425.59 941.951 427.489 941.128 429.469 941.128H564.599C566.579 941.128 568.478 941.951 569.878 943.416C571.278 944.881 572.065 946.867 572.065 948.938C572.065 951.01 571.278 952.996 569.878 954.461C568.478 955.925 566.579 956.748 564.599 956.748Z" fill="white"/>
<path d="M718.955 830.294C718.955 840.94 714.913 851.15 707.717 858.678C700.521 866.206 690.761 870.435 680.584 870.435C670.407 870.435 660.647 866.206 653.451 858.678C646.255 851.15 642.213 840.94 642.213 830.294" fill="#3F3D56"/>
<path d="M527.943 267.391C535.505 267.391 541.636 260.978 541.636 253.067C541.636 245.155 535.505 238.742 527.943 238.742C520.38 238.742 514.25 245.155 514.25 253.067C514.25 260.978 520.38 267.391 527.943 267.391Z" fill="#171717"/>
<path d="M937.873 346.098C938.401 347.059 938.861 348.063 939.249 349.098L1023.33 377.535L1042.35 368.459L1069.3 375.692L1046.77 409.551C1044.95 412.287 1042.36 414.261 1039.37 415.178C1036.38 416.096 1033.17 415.906 1030.21 414.638L933.835 373.312C930.85 375.88 927.193 377.353 923.348 377.535C919.503 377.716 915.654 376.598 912.312 374.328C908.971 372.058 906.295 368.745 904.64 364.828C902.986 360.912 902.432 356.578 903.051 352.403C903.671 348.229 905.435 344.411 908.108 341.458C910.782 338.505 914.239 336.556 918.019 335.872C921.8 335.187 925.724 335.799 929.271 337.626C932.817 339.452 935.818 342.407 937.873 346.098Z" fill="#FFB6B6"/>
<path d="M1020.17 375.869C1020.4 374.673 1020.86 373.547 1021.52 372.567C1022.18 371.587 1023.01 370.777 1023.98 370.192L1057.63 349.748C1062.11 345.977 1067.75 344.341 1073.32 345.199C1078.88 346.058 1083.91 349.341 1087.3 354.327C1090.69 359.314 1092.18 365.599 1091.42 371.802C1090.67 378.005 1087.73 383.621 1083.27 387.418L1056.3 417.968C1055.53 418.84 1054.6 419.517 1053.57 419.952C1052.55 420.387 1051.45 420.571 1050.35 420.491C1049.26 420.411 1048.19 420.068 1047.23 419.487C1046.26 418.906 1045.42 418.099 1044.76 417.122L1021.54 382.793C1020.88 381.817 1020.41 380.693 1020.18 379.498C1019.94 378.303 1019.94 377.065 1020.17 375.869Z" fill="#3348F2"/>
<path d="M1064.37 261.86C1069.21 244.655 1080.22 228.875 1095.45 223.058C1110.68 217.242 1132.98 226.102 1144.43 238.824C1165.37 262.093 1166.01 290.58 1151.63 315.842C1148.76 315.673 1138.89 315.548 1135.99 315.427L1131.89 300.201V315.277C1109.29 314.498 1085.75 314.986 1062.2 315.491C1060.09 297.605 1059.53 279.065 1064.37 261.86Z" fill="#2F2E41"/>
<path d="M1073.81 979.197H1053.19L1043.38 890.518L1073.82 890.52L1073.81 979.197Z" fill="#FFB6B6"/>
<path d="M1200.9 979.197H1180.28L1170.47 890.518L1200.9 890.52L1200.9 979.197Z" fill="#FFB6B6"/>
<path d="M1140.69 434.544L1145.36 448.088L1144.43 461.634L1052.99 496.946L1057.52 437.671L1067.8 424.126L1140.69 434.544Z" fill="#FFB6B6"/>
<path d="M1097.38 315.843C1115.41 315.843 1130.04 299.54 1130.04 279.429C1130.04 259.319 1115.41 243.016 1097.38 243.016C1079.34 243.016 1064.72 259.319 1064.72 279.429C1064.72 299.54 1079.34 315.843 1097.38 315.843Z" fill="#FFB7B7"/>
<path d="M1161.16 496.693V519.836C1161.16 519.836 1185.46 555.038 1172.38 582.127L1209.86 942.627H1170.62L1105.1 638.388L1077.17 936.376H1043.53L1039.52 699.381C1038.46 637.043 1047.8 575.028 1067.05 516.49L1161.16 496.693Z" fill="#2F2E41"/>
<path d="M1074.94 232.013C1081.21 227.747 1088.4 225.44 1095.75 225.332C1103.1 225.224 1110.34 227.319 1116.71 231.399C1123.08 235.478 1128.36 241.392 1131.98 248.522C1135.6 255.652 1137.44 263.736 1137.3 271.929C1119.05 272.865 1099.87 273.108 1080.42 273.15L1075.83 260.61L1073.12 273.16C1067.19 273.159 1061.26 273.15 1055.31 273.134C1055.07 264.964 1056.75 256.866 1060.2 249.65C1063.64 242.434 1068.72 236.352 1074.94 232.013Z" fill="#2F2E41"/>
<path d="M1083.04 1022.85H1068.41L1065.79 1007.45L1059.11 1022.85H1020.3C1018.44 1022.85 1016.63 1022.19 1015.13 1020.96C1013.63 1019.73 1012.52 1018 1011.97 1016.02C1011.42 1014.04 1011.44 1011.91 1012.05 1009.95C1012.66 1007.99 1013.81 1006.3 1015.34 1005.12L1046.33 981.258V965.687L1078.93 967.856L1083.04 1022.85Z" fill="#2F2E41"/>
<path d="M1211.99 1022.85H1197.36L1194.75 1007.45L1188.06 1022.85H1149.25C1147.39 1022.85 1145.58 1022.19 1144.08 1020.96C1142.59 1019.73 1141.48 1018 1140.93 1016.02C1140.37 1014.04 1140.4 1011.91 1141.01 1009.95C1141.61 1007.99 1142.77 1006.3 1144.3 1005.12L1175.29 981.258V965.687L1207.88 967.856L1211.99 1022.85Z" fill="#2F2E41"/>
<path d="M1176.02 570.916C1177.84 543.103 1175.97 515.144 1170.47 487.94C1163.53 453.606 1154.72 409.919 1154.55 408.789C1154.55 408.767 1154.54 408.745 1154.54 408.723L1143.53 358.113C1143.52 357.928 1141.48 355.277 1141.25 354.134C1137.44 350.155 1136.85 350.162 1136.68 350.155L1132.63 343.328C1132.46 343.322 1132.24 343.131 1132.12 342.993C1132 342.855 1131.99 342.781 1131.99 342.589C1131.99 341.046 1131.72 339.517 1131.19 338.091C1130.66 336.665 1129.88 335.369 1128.91 334.278C1127.93 333.187 1126.76 332.321 1125.49 331.73C1124.21 331.139 1122.84 330.835 1121.45 330.835H1084.34C1081.93 330.837 1079.61 331.816 1077.81 333.59C1076.01 335.363 1074.85 337.809 1074.55 340.469C1074.53 340.652 1074.45 340.821 1074.33 340.943C1074.21 341.065 1074.04 341.13 1073.88 341.126L1059.44 340.585C1059.29 340.579 1059.15 340.627 1059.03 340.721C1058.91 340.814 1058.83 340.948 1058.78 341.102L1057.78 344.661C1043.2 397.008 1039.15 452.296 1045.92 506.587C1047.67 521.034 1046.88 542.758 1046.22 554.86C1046.15 556.043 1046.3 557.229 1046.64 558.35C1046.99 559.47 1047.53 560.504 1048.24 561.39C1048.94 562.276 1049.8 562.999 1050.76 563.515C1051.71 564.031 1052.75 564.332 1053.81 564.399C1080.66 566.122 1156.68 607.133 1174.88 587.553C1174.93 587.506 1175.41 580.283 1176.02 570.916Z" fill="#3348F2"/>
<path d="M959.414 397.034C959.874 397.965 960.268 398.932 960.592 399.926L1043.23 425.123L1050.4 417.164L1075.71 438.623L1060.05 461.649C1058.21 464.152 1055.66 465.904 1052.78 466.64C1049.91 467.376 1046.87 467.058 1044.12 465.733L954.418 422.548C951.476 424.844 947.942 426.075 944.286 426.08C940.629 426.085 937.024 424.863 933.95 422.575C930.875 420.288 928.477 417.044 927.075 413.276C925.672 409.507 925.331 405.392 926.097 401.478C926.864 397.564 928.701 394.037 931.365 391.365C934.029 388.693 937.393 387.004 941.009 386.521C944.626 386.039 948.324 386.787 951.612 388.664C954.9 390.542 957.621 393.462 959.414 397.034Z" fill="#FFB6B6"/>
<path d="M1014.81 698.719C1022.37 698.719 1028.5 692.306 1028.5 684.395C1028.5 676.484 1022.37 670.07 1014.81 670.07C1007.24 670.07 1001.11 676.484 1001.11 684.395C1001.11 692.306 1007.24 698.719 1014.81 698.719Z" fill="#171717"/>
<path d="M295.161 765.567C302.723 765.567 308.854 759.153 308.854 751.242C308.854 743.331 302.723 736.917 295.161 736.917C287.598 736.917 281.468 743.331 281.468 751.242C281.468 759.153 287.598 765.567 295.161 765.567Z" fill="#171717"/>
<path d="M1312.13 1025H965.486C964.847 1025 964.234 1024.75 963.783 1024.3C963.331 1023.85 963.077 1023.25 963.077 1022.61C963.077 1021.98 963.331 1021.37 963.783 1020.92C964.234 1020.48 964.847 1020.23 965.486 1020.23H1312.13C1312.77 1020.23 1313.38 1020.48 1313.83 1020.93C1314.28 1021.37 1314.53 1021.98 1314.53 1022.61C1314.53 1023.24 1314.28 1023.85 1313.83 1024.3C1313.38 1024.75 1312.77 1025 1312.13 1025Z" fill="#171717"/>
<path d="M1273.96 917.737L1263.81 882.42C1277 867.885 1293.41 856.73 1311.62 849.922C1293.43 879.721 1309.9 918.189 1302.18 952.097C1299.7 962.657 1294.91 972.579 1288.17 981.13C1281.43 989.681 1272.91 996.641 1263.25 1001.49L1246.58 1022.11C1238.28 1007.08 1233.35 990.316 1232.14 972.978C1230.92 955.64 1233.45 938.139 1239.54 921.681C1243.05 912.48 1247.68 903.73 1253.31 895.639C1262.82 907.073 1273.96 917.737 1273.96 917.737Z" fill="#171717"/>
<defs>
<filter id="filter0_di_39_439" x="131.409" y="0" width="1085.19" height="1026.63" filterUnits="userSpaceOnUse" color-interpolation-filters="sRGB">
<feFlood flood-opacity="0" result="BackgroundImageFix"/>
<feColorMatrix in="SourceAlpha" type="matrix" values="0 0 0 0 0 0 0 0 0 0 0 0 0 0 0 0 0 0 127 0" result="hardAlpha"/>
<feOffset dy="4"/>
<feGaussianBlur stdDeviation="2"/>
<feComposite in2="hardAlpha" operator="out"/>
<feColorMatrix type="matrix" values="0 0 0 0 0 0 0 0 0 0 0 0 0 0 0 0 0 0 0.25 0"/>
<feBlend mode="normal" in2="BackgroundImageFix" result="effect1_dropShadow_39_439"/>
<feBlend mode="normal" in="SourceGraphic" in2="effect1_dropShadow_39_439" result="shape"/>
<feColorMatrix in="SourceAlpha" type="matrix" values="0 0 0 0 0 0 0 0 0 0 0 0 0 0 0 0 0 0 127 0" result="hardAlpha"/>
<feOffset dy="4"/>
<feGaussianBlur stdDeviation="2"/>
<feComposite in2="hardAlpha" operator="arithmetic" k2="-1" k3="1"/>
<feColorMatrix type="matrix" values="0 0 0 0 0 0 0 0 0 0 0 0 0 0 0 0 0 0 0.25 0"/>
<feBlend mode="normal" in2="shape" result="effect2_innerShadow_39_439"/>
</filter>
<linearGradient id="paint0_linear_39_439" x1="135.409" y1="509.317" x2="1212.59" y2="509.317" gradientUnits="userSpaceOnUse">
<stop stop-color="#171717"/>
<stop offset="1" stop-color="white"/>
</linearGradient>
</defs>
</svg>
