<svg width="962" height="897" viewBox="0 0 962 897" fill="none" xmlns="http://www.w3.org/2000/svg">
<g filter="url(#filter0_di_39_435)">
<ellipse cx="481" cy="444.5" rx="477" ry="444.5" fill="url(#paint0_linear_39_435)"/>
</g>
<g filter="url(#filter1_di_39_435)">
<ellipse cx="480.326" cy="444.5" rx="406.258" ry="386.159" fill="url(#paint1_linear_39_435)"/>
</g>
<path d="M692.131 582.609C694.915 582.788 696.452 579.222 694.345 577.145L694.135 576.286C694.163 576.218 694.19 576.149 694.218 576.081C695.878 571.997 700.451 570.063 704.42 571.755C716.971 577.104 703.72 589.396 704.716 597.713C705.065 600.584 715.974 600.742 715.357 603.559C721.157 590.485 724.207 576.21 724.203 561.855C724.201 558.249 724.009 554.642 723.616 551.045C723.293 548.102 722.848 545.177 722.273 542.28C719.16 526.616 712.428 511.698 702.72 499.24C698.054 496.613 700.9 492.503 698.548 487.578C697.704 485.802 690.17 485.762 689.856 483.815C690.193 483.861 695.063 478.647 693.454 476.069C692.396 474.373 692.725 472.213 694.085 470.763C694.218 470.621 694.344 470.471 694.46 470.309C698.476 464.691 704.013 465.67 706.906 473.301C713.082 476.511 713.143 481.839 709.356 486.964C706.947 490.225 706.617 494.636 704.504 498.127C704.721 498.414 704.948 498.692 705.165 498.979C709.157 504.253 712.61 509.922 715.521 515.878C714.696 509.258 715.908 501.282 717.975 496.139C720.346 490.238 724.806 485.274 728.713 480.17C733.379 474.074 742.875 476.84 743.701 484.559C743.708 484.633 743.716 484.707 743.724 484.781C743.146 485.117 742.58 485.475 742.027 485.852C738.875 488.002 739.968 493.039 743.703 493.631L743.788 493.645C743.579 495.789 736.198 502.544 735.677 504.635C740.669 524.51 736.933 527.134 721.574 527.467L720.768 528.651C722.223 532.965 723.395 537.383 724.274 541.857C725.102 546.011 725.678 550.209 726.002 554.426C726.404 559.746 726.371 565.093 725.937 570.405L725.963 570.216C727.067 564.366 730.146 558.902 734.618 555.114C741.28 549.468 750.694 547.387 757.882 542.848C761.342 540.663 765.778 543.484 765.175 547.62L765.146 547.818C764.075 548.267 763.031 548.788 762.022 549.371C761.443 549.708 760.877 550.065 760.324 550.443C757.172 552.594 758.265 557.632 762.001 558.222L762.086 558.235C762.147 558.244 762.199 558.253 762.26 558.262C760.425 562.758 742.943 569.099 739.742 572.698C736.629 590.058 738.158 589.541 723.827 584.491H723.819C722.254 591.526 719.968 598.399 717.028 604.949L692.747 604.958C692.66 604.68 692.581 604.393 692.503 604.115C694.748 604.258 697.011 604.122 699.221 603.7C697.419 601.421 695.617 599.125 693.815 596.847C693.771 596.802 693.736 596.757 693.701 596.713L693.674 596.678L691.174 588.194C691.371 586.312 691.694 584.446 692.131 582.609Z" fill="#171717"/>
<g filter="url(#filter2_d_39_435)">
<path d="M348.531 363.852L336.535 363.558C336.535 363.558 329.68 363.39 326.327 372.824C322.975 382.259 301.035 424.545 304.488 427.802C307.94 431.059 309.641 429.515 306.239 432.603C302.837 435.692 301.11 434.064 302.849 437.279C304.588 440.493 286.389 522.524 296.923 554.505C307.456 586.485 309.283 600.805 316.138 600.973L493.823 605.331C493.823 605.331 504.163 543.727 497.296 541.972C490.428 540.217 372.128 530.972 372.128 530.972C372.128 530.972 374.25 366.069 348.531 363.852Z" fill="black"/>
<path d="M492.555 282.123C527.428 271.678 547.743 234.985 537.93 200.167C528.117 165.349 491.891 145.59 457.019 156.035C422.146 166.48 401.831 203.173 411.644 237.991C421.457 272.809 457.683 292.568 492.555 282.123Z" fill="#FFB8B8"/>
<path d="M474.883 324.72L467.975 321.381L433.336 293.643C433.336 293.643 429.972 292.628 429.981 303.019L429.991 313.41L409.291 329.371L419.862 564.71L568.314 562.022L562.92 324.857L528.377 304.701L521.606 292.013L485.237 321.068L474.883 324.72Z" fill="white"/>
<path d="M383.621 600.005L387.207 599.939L618.401 595.748L623.35 337.624C623.35 337.624 602.632 329.329 588.811 331.309C588.811 331.309 559.447 312.794 549.102 312.978C538.74 313.167 521.459 292.706 521.459 292.706C521.459 292.706 521.498 335.998 509.442 367.387C497.387 398.776 488.856 497.655 488.856 497.655L433.472 337.589L432.562 293.442C427.41 298.951 423.054 305.157 419.628 311.871C414.454 322.344 397.217 334.775 397.217 334.775C397.217 334.775 350.633 363.337 341.997 366.966C333.374 370.575 329.92 374.11 329.92 374.11L335.412 416.165L338.523 439.989L383.621 600.005Z" fill="#000001"/>
<path d="M387.009 499.5C388.742 513.32 383.616 574.028 383.616 574.028L381.161 578.487L378.777 582.817L321.821 380.728C322.464 379.448 323.376 378.322 324.494 377.426C326.151 376.086 327.976 374.97 329.92 374.11L336.839 373.981C336.839 373.981 385.272 485.663 387.009 499.5Z" fill="black"/>
<path d="M552.746 525.935C552.746 525.935 568.222 459.845 595.847 466.272C623.472 472.699 595.897 521.69 595.897 521.69L552.746 525.935Z" fill="#FFB8B8"/>
<path d="M449.179 533.006C449.179 533.006 383.583 532.462 383.587 537.657C383.592 542.853 374.991 575.913 380.17 575.82C385.348 575.726 425.049 573.275 425.05 575.007C425.052 576.739 445.769 579.827 445.769 579.827L449.179 533.006Z" fill="#FFB8B8"/>
<path d="M516.325 318.573L478.342 331.585L469.711 331.741L431.703 320.105L430.029 354.973L469.719 340.399L478.349 340.243L518.064 353.379L516.325 318.573Z" fill="#3348F2"/>
<path d="M480.298 587.871L477.934 602.18L386.644 604.335L383.622 600.005L376.126 573.41L379.814 573.709L383.616 574.028L480.298 587.871Z" fill="black"/>
<path d="M468.167 532.662C468.167 532.662 445.723 529.605 445.725 531.337C445.726 533.069 431.966 587.005 438.871 586.88C445.775 586.755 471.673 591.481 471.673 591.481L468.167 532.662Z" fill="white"/>
<path d="M612.146 342.157L624.229 341.938C624.229 341.938 631.134 341.813 634.596 352.142C638.058 362.47 660.541 408.823 657.091 412.349C653.642 415.875 651.915 414.174 655.37 417.575C658.826 420.977 660.55 419.214 658.827 422.708C657.104 426.203 676.174 515.914 665.849 550.737C655.523 585.561 653.811 601.179 646.906 601.304L467.934 604.545C467.934 604.545 456.964 537.202 463.868 535.345C470.771 533.488 589.871 524.404 589.871 524.404C589.871 524.404 586.255 344.358 612.146 342.157Z" fill="black"/>
<path d="M418.108 161.123L405.658 156.808C405.658 156.808 431.658 130.228 467.867 131.843L457.674 121.811C457.674 121.811 482.558 112.279 505.209 135.708C517.116 148.023 530.893 162.504 539.489 178.941L552.818 178.7L547.265 189.963L566.745 200.772L546.759 199.129C548.661 208.732 548.018 218.71 544.895 228.073L540.381 240.641C540.381 240.641 522.244 204.644 522.24 200.104L522.25 211.455C522.25 211.455 509.795 201.464 509.789 194.653L503.007 202.722L499.601 190.297L457.749 203.542L464.528 193.203L438.508 197.079L448.68 184.408C448.68 184.408 419.275 199.698 418.155 212.205C417.035 224.712 402.341 240.87 402.341 240.87L395.541 229.642C395.541 229.642 385.312 178.745 418.108 161.123Z" fill="#2F2E41"/>
</g>
<g filter="url(#filter3_d_39_435)">
<path d="M237.719 602.853C235.414 602.854 233.204 603.359 231.574 604.255C229.945 605.151 229.028 606.366 229.025 607.634V755.036C229.028 756.304 229.945 757.519 231.574 758.415C233.204 759.312 235.414 759.816 237.719 759.817H736.408C738.713 759.816 740.923 759.312 742.553 758.415C744.182 757.519 745.099 756.304 745.102 755.036V607.634C745.099 606.366 744.182 605.151 742.553 604.255C740.923 603.359 738.713 602.854 736.408 602.853H237.719Z" fill="#3348F2"/>
</g>
<g filter="url(#filter4_d_39_435)">
<path d="M263.258 621.995C261.189 621.996 259.206 622.385 257.743 623.078C256.28 623.77 255.457 624.708 255.455 625.687V739.535C255.457 740.514 256.28 741.452 257.743 742.145C259.206 742.837 261.189 743.226 263.258 743.227H710.869C712.937 743.226 714.921 742.837 716.384 742.145C717.846 741.452 718.669 740.514 718.672 739.535V625.687C718.669 624.708 717.846 623.77 716.384 623.078C714.921 622.385 712.937 621.996 710.869 621.995H263.258Z" fill="#171717"/>
</g>
<path d="M319.13 667.27C319.13 666.057 319.573 665.053 320.46 664.26C321.347 663.42 322.467 663 323.82 663H343.28C346.64 663 349.603 663.677 352.17 665.03C354.783 666.337 356.79 668.227 358.19 670.7C359.637 673.127 360.36 675.95 360.36 679.17C360.36 682.437 359.66 685.307 358.26 687.78C356.86 690.207 354.877 692.097 352.31 693.45C349.743 694.757 346.733 695.41 343.28 695.41H328.51V705.7C328.51 707.94 327.693 709.667 326.06 710.88C324.473 712.047 322.163 712.63 319.13 712.63V667.27ZM343.28 687.29C345.753 687.29 347.667 686.567 349.02 685.12C350.373 683.673 351.05 681.667 351.05 679.1C351.05 676.58 350.35 674.62 348.95 673.22C347.597 671.82 345.707 671.12 343.28 671.12H328.51V687.29H343.28ZM367.118 667.27C367.118 666.057 367.562 665.053 368.448 664.26C369.335 663.42 370.455 663 371.808 663H390.498C395.538 663 399.435 664.33 402.188 666.99C404.988 669.65 406.388 673.383 406.388 678.19C406.388 680.943 405.828 683.277 404.708 685.19C403.588 687.057 401.885 688.55 399.598 689.67V689.88C403.705 691.7 405.758 695.153 405.758 700.24V705.7C405.758 707.94 404.965 709.667 403.378 710.88C401.792 712.047 399.458 712.63 396.378 712.63V700.66C396.378 698.187 395.888 696.367 394.908 695.2C393.928 694.033 392.435 693.45 390.428 693.45H376.358V705.7C376.358 707.987 375.565 709.713 373.978 710.88C372.438 712.047 370.152 712.63 367.118 712.63V667.27ZM390.008 685.47C392.248 685.47 393.975 684.84 395.188 683.58C396.402 682.273 397.008 680.453 397.008 678.12C397.008 673.36 394.675 670.98 390.008 670.98H376.358V685.47H390.008ZM432.991 712.63C429.164 712.63 425.664 711.883 422.491 710.39C419.318 708.85 416.798 706.773 414.931 704.16C413.111 701.547 412.201 698.7 412.201 695.62V679.31C412.201 676.23 413.111 673.407 414.931 670.84C416.798 668.227 419.318 666.173 422.491 664.68C425.664 663.14 429.164 662.37 432.991 662.37C436.818 662.37 440.318 663.14 443.491 664.68C446.711 666.173 449.231 668.227 451.051 670.84C452.918 673.407 453.851 676.23 453.851 679.31V695.62C453.851 698.7 452.918 701.547 451.051 704.16C449.231 706.773 446.711 708.85 443.491 710.39C440.318 711.883 436.818 712.63 432.991 712.63ZM432.991 704.44C436.491 704.44 439.291 703.623 441.391 701.99C443.491 700.31 444.541 698.14 444.541 695.48V679.52C444.541 676.813 443.491 674.643 441.391 673.01C439.291 671.33 436.491 670.49 432.991 670.49C429.538 670.49 426.761 671.33 424.661 673.01C422.561 674.643 421.511 676.813 421.511 679.52V695.48C421.511 698.14 422.561 700.31 424.661 701.99C426.761 703.623 429.538 704.44 432.991 704.44ZM498.981 712.63C495.061 712.63 491.514 711.837 488.341 710.25C485.214 708.663 482.764 706.47 480.991 703.67C479.217 700.87 478.331 697.697 478.331 694.15V669.3C478.331 667.06 479.124 665.357 480.711 664.19C482.297 662.977 484.631 662.37 487.711 662.37V694.15C487.711 697.277 488.737 699.773 490.791 701.64C492.844 703.507 495.574 704.44 498.981 704.44C502.387 704.44 505.117 703.507 507.171 701.64C509.224 699.773 510.251 697.277 510.251 694.15V669.3C510.251 667.013 511.044 665.287 512.631 664.12C514.217 662.953 516.551 662.37 519.631 662.37V694.15C519.631 697.697 518.744 700.87 516.971 703.67C515.197 706.47 512.724 708.663 509.551 710.25C506.424 711.837 502.901 712.63 498.981 712.63ZM546.739 712.63C542.539 712.63 538.876 712.117 535.749 711.09C532.623 710.063 530.219 708.617 528.539 706.75C526.906 704.837 526.089 702.62 526.089 700.1C526.089 696.273 528.679 694.36 533.859 694.36C534.046 697.907 535.236 700.59 537.429 702.41C539.669 704.23 542.796 705.14 546.809 705.14C550.123 705.14 552.689 704.58 554.509 703.46C556.329 702.293 557.239 700.683 557.239 698.63C557.239 697.277 556.889 696.18 556.189 695.34C555.489 694.453 554.299 693.683 552.619 693.03C550.939 692.33 548.489 691.63 545.269 690.93C540.696 689.857 537.079 688.667 534.419 687.36C531.806 686.053 529.916 684.49 528.749 682.67C527.583 680.803 526.999 678.493 526.999 675.74C526.999 673.08 527.769 670.747 529.309 668.74C530.896 666.733 533.113 665.17 535.959 664.05C538.853 662.93 542.166 662.37 545.899 662.37C549.493 662.37 552.689 662.86 555.489 663.84C558.336 664.773 560.553 666.103 562.139 667.83C563.773 669.557 564.589 671.54 564.589 673.78C564.589 677.233 562.093 679.03 557.099 679.17C556.819 675.95 555.793 673.593 554.019 672.1C552.246 670.607 549.539 669.86 545.899 669.86C542.773 669.86 540.369 670.373 538.689 671.4C537.009 672.427 536.169 673.873 536.169 675.74C536.169 677.047 536.496 678.143 537.149 679.03C537.803 679.87 538.899 680.617 540.439 681.27C541.979 681.877 544.173 682.507 547.019 683.16C551.826 684.233 555.629 685.447 558.429 686.8C561.229 688.107 563.259 689.717 564.519 691.63C565.779 693.497 566.409 695.807 566.409 698.56C566.409 701.407 565.593 703.903 563.959 706.05C562.373 708.15 560.086 709.783 557.099 710.95C554.159 712.07 550.706 712.63 546.739 712.63ZM573.153 667.27C573.153 666.103 573.597 665.1 574.483 664.26C575.417 663.42 576.537 663 577.843 663H609.063C609.063 665.8 608.573 667.853 607.593 669.16C606.66 670.42 605.12 671.05 602.973 671.05H582.533V683.23H601.153C601.153 686.03 600.663 688.083 599.683 689.39C598.75 690.65 597.21 691.28 595.063 691.28H582.533V703.95H604.443C606.543 703.95 608.06 704.603 608.993 705.91C609.973 707.17 610.463 709.2 610.463 712H577.843C576.537 712 575.417 711.603 574.483 710.81C573.597 709.97 573.153 708.943 573.153 707.73V667.27ZM617.245 667.27C617.245 666.057 617.689 665.053 618.575 664.26C619.462 663.42 620.582 663 621.935 663H640.625C645.665 663 649.562 664.33 652.315 666.99C655.115 669.65 656.515 673.383 656.515 678.19C656.515 680.943 655.955 683.277 654.835 685.19C653.715 687.057 652.012 688.55 649.725 689.67V689.88C653.832 691.7 655.885 695.153 655.885 700.24V705.7C655.885 707.94 655.092 709.667 653.505 710.88C651.919 712.047 649.585 712.63 646.505 712.63V700.66C646.505 698.187 646.015 696.367 645.035 695.2C644.055 694.033 642.562 693.45 640.555 693.45H626.485V705.7C626.485 707.987 625.692 709.713 624.105 710.88C622.565 712.047 620.279 712.63 617.245 712.63V667.27ZM640.135 685.47C642.375 685.47 644.102 684.84 645.315 683.58C646.529 682.273 647.135 680.453 647.135 678.12C647.135 673.36 644.802 670.98 640.135 670.98H626.485V685.47H640.135Z" fill="white"/>
<defs>
<filter id="filter0_di_39_435" x="0" y="0" width="962" height="897" filterUnits="userSpaceOnUse" color-interpolation-filters="sRGB">
<feFlood flood-opacity="0" result="BackgroundImageFix"/>
<feColorMatrix in="SourceAlpha" type="matrix" values="0 0 0 0 0 0 0 0 0 0 0 0 0 0 0 0 0 0 127 0" result="hardAlpha"/>
<feOffset dy="4"/>
<feGaussianBlur stdDeviation="2"/>
<feComposite in2="hardAlpha" operator="out"/>
<feColorMatrix type="matrix" values="0 0 0 0 0 0 0 0 0 0 0 0 0 0 0 0 0 0 0.25 0"/>
<feBlend mode="normal" in2="BackgroundImageFix" result="effect1_dropShadow_39_435"/>
<feBlend mode="normal" in="SourceGraphic" in2="effect1_dropShadow_39_435" result="shape"/>
<feColorMatrix in="SourceAlpha" type="matrix" values="0 0 0 0 0 0 0 0 0 0 0 0 0 0 0 0 0 0 127 0" result="hardAlpha"/>
<feOffset dy="4"/>
<feGaussianBlur stdDeviation="2"/>
<feComposite in2="hardAlpha" operator="arithmetic" k2="-1" k3="1"/>
<feColorMatrix type="matrix" values="0 0 0 0 0 0 0 0 0 0 0 0 0 0 0 0 0 0 0.25 0"/>
<feBlend mode="normal" in2="shape" result="effect2_innerShadow_39_435"/>
</filter>
<filter id="filter1_di_39_435" x="70.0677" y="58.3406" width="820.517" height="780.319" filterUnits="userSpaceOnUse" color-interpolation-filters="sRGB">
<feFlood flood-opacity="0" result="BackgroundImageFix"/>
<feColorMatrix in="SourceAlpha" type="matrix" values="0 0 0 0 0 0 0 0 0 0 0 0 0 0 0 0 0 0 127 0" result="hardAlpha"/>
<feOffset dy="4"/>
<feGaussianBlur stdDeviation="2"/>
<feComposite in2="hardAlpha" operator="out"/>
<feColorMatrix type="matrix" values="0 0 0 0 0 0 0 0 0 0 0 0 0 0 0 0 0 0 0.25 0"/>
<feBlend mode="normal" in2="BackgroundImageFix" result="effect1_dropShadow_39_435"/>
<feBlend mode="normal" in="SourceGraphic" in2="effect1_dropShadow_39_435" result="shape"/>
<feColorMatrix in="SourceAlpha" type="matrix" values="0 0 0 0 0 0 0 0 0 0 0 0 0 0 0 0 0 0 127 0" result="hardAlpha"/>
<feOffset dy="4"/>
<feGaussianBlur stdDeviation="2"/>
<feComposite in2="hardAlpha" operator="arithmetic" k2="-1" k3="1"/>
<feColorMatrix type="matrix" values="0 0 0 0 0 0 0 0 0 0 0 0 0 0 0 0 0 0 0.25 0"/>
<feBlend mode="normal" in2="shape" result="effect2_innerShadow_39_435"/>
</filter>
<filter id="filter2_d_39_435" x="289.622" y="119.893" width="383.309" height="493.438" filterUnits="userSpaceOnUse" color-interpolation-filters="sRGB">
<feFlood flood-opacity="0" result="BackgroundImageFix"/>
<feColorMatrix in="SourceAlpha" type="matrix" values="0 0 0 0 0 0 0 0 0 0 0 0 0 0 0 0 0 0 127 0" result="hardAlpha"/>
<feOffset dy="4"/>
<feGaussianBlur stdDeviation="2"/>
<feComposite in2="hardAlpha" operator="out"/>
<feColorMatrix type="matrix" values="0 0 0 0 0 0 0 0 0 0 0 0 0 0 0 0 0 0 0.25 0"/>
<feBlend mode="normal" in2="BackgroundImageFix" result="effect1_dropShadow_39_435"/>
<feBlend mode="normal" in="SourceGraphic" in2="effect1_dropShadow_39_435" result="shape"/>
</filter>
<filter id="filter3_d_39_435" x="225.025" y="602.853" width="524.076" height="164.964" filterUnits="userSpaceOnUse" color-interpolation-filters="sRGB">
<feFlood flood-opacity="0" result="BackgroundImageFix"/>
<feColorMatrix in="SourceAlpha" type="matrix" values="0 0 0 0 0 0 0 0 0 0 0 0 0 0 0 0 0 0 127 0" result="hardAlpha"/>
<feOffset dy="4"/>
<feGaussianBlur stdDeviation="2"/>
<feComposite in2="hardAlpha" operator="out"/>
<feColorMatrix type="matrix" values="0 0 0 0 0 0 0 0 0 0 0 0 0 0 0 0 0 0 0.25 0"/>
<feBlend mode="normal" in2="BackgroundImageFix" result="effect1_dropShadow_39_435"/>
<feBlend mode="normal" in="SourceGraphic" in2="effect1_dropShadow_39_435" result="shape"/>
</filter>
<filter id="filter4_d_39_435" x="251.455" y="621.995" width="471.217" height="129.232" filterUnits="userSpaceOnUse" color-interpolation-filters="sRGB">
<feFlood flood-opacity="0" result="BackgroundImageFix"/>
<feColorMatrix in="SourceAlpha" type="matrix" values="0 0 0 0 0 0 0 0 0 0 0 0 0 0 0 0 0 0 127 0" result="hardAlpha"/>
<feOffset dy="4"/>
<feGaussianBlur stdDeviation="2"/>
<feComposite in2="hardAlpha" operator="out"/>
<feColorMatrix type="matrix" values="0 0 0 0 0 0 0 0 0 0 0 0 0 0 0 0 0 0 0.25 0"/>
<feBlend mode="normal" in2="BackgroundImageFix" result="effect1_dropShadow_39_435"/>
<feBlend mode="normal" in="SourceGraphic" in2="effect1_dropShadow_39_435" result="shape"/>
</filter>
<linearGradient id="paint0_linear_39_435" x1="4" y1="444.5" x2="958" y2="444.5" gradientUnits="userSpaceOnUse">
<stop stop-color="#CCCCCC"/>
<stop offset="1" stop-color="#171717"/>
</linearGradient>
<linearGradient id="paint1_linear_39_435" x1="74.0677" y1="444.5" x2="886.585" y2="444.5" gradientUnits="userSpaceOnUse">
<stop stop-color="#171717"/>
<stop offset="1" stop-color="#E6E6E6"/>
</linearGradient>
</defs>
</svg>
