<svg width="307" height="292" viewBox="0 0 307 292" fill="none" xmlns="http://www.w3.org/2000/svg">
<path d="M244 48.9155L153 30L62 48.9155V181.324C84.0252 226.69 108.34 242.222 155.22 267C207.346 238.872 228.922 220.753 244 181.324V48.9155Z" stroke="black" stroke-width="7"/>
<path d="M81.5811 141.83V132.532H61.9369C34.0762 142.678 20.2063 150.125 3.40541 171.34C10.6703 212.736 26.8418 232.958 58.3288 268.362C39.7522 236.769 28.2606 220.367 22.6486 172.957C41.4707 156.124 49.5931 152.485 66.7477 145.468L81.5811 141.83Z" fill="black"/>
<path d="M81.5811 156.787V142.234L63.1396 147.894C48.6248 156.47 40.4536 163.964 25.8559 180.234C46.5788 241.924 60.0703 261.593 90 291C68.2242 253.494 51.9325 223.762 45.9009 180.234C54.1603 170.729 58.7009 167.213 66.7477 162.043L81.5811 156.787Z" fill="black"/>
<path d="M45.5 93.3192C49.2037 57.0432 55.3221 38.0651 73.5631 6C63.4186 16.5185 47.5045 38.7447 40.2883 53.7021C33.0721 68.6596 29.7049 82.5684 29.464 96.5532C45.9269 110.628 53.8545 114.049 67.9505 120L81.5811 131.319V111.106C67.4467 108.313 59.554 103.819 45.5 93.3192Z" fill="black"/>
<path d="M67.9505 120L81.5811 119.596V132.532H65.545C38.4827 131.047 24.0761 127.668 1 113.128C9.85514 65.6363 31.2147 45.7421 51.1126 20.1489C32.9746 50.9856 23.9863 68.6018 20.2432 103.426C38.1034 114.449 48.3206 117.588 67.9505 120Z" fill="black"/>
<path d="M81.5811 132.532V141.83L66.7477 145.468C49.5931 152.485 41.4707 156.124 22.6486 172.957C28.2606 220.367 39.7522 236.769 58.3288 268.362C26.8418 232.958 10.6703 212.736 3.40541 171.34C20.2063 150.125 34.0762 142.678 61.9369 132.532H81.5811ZM81.5811 132.532H65.545C38.4827 131.047 24.0761 127.668 1 113.128C9.85514 65.6363 31.2147 45.7421 51.1126 20.1489C32.9746 50.9856 23.9863 68.6018 20.2432 103.426C38.1034 114.449 48.3206 117.588 67.9505 120M81.5811 132.532V119.596L67.9505 120M67.9505 120L81.5811 131.319V111.106C67.4467 108.313 59.554 103.819 45.5 93.3192C49.2037 57.0432 55.3221 38.0651 73.5631 6C63.4186 16.5185 47.5045 38.7447 40.2883 53.7021C33.0721 68.6596 29.7049 82.5684 29.464 96.5532C45.9269 110.628 53.8545 114.049 67.9505 120ZM81.5811 142.234V156.787L66.7477 162.043C58.7009 167.213 54.1603 170.729 45.9009 180.234C51.9325 223.762 68.2242 253.494 90 291C60.0703 261.593 46.5788 241.924 25.8559 180.234C40.4536 163.964 48.6248 156.47 63.1396 147.894L81.5811 142.234Z" stroke="black"/>
<path d="M225.419 136.83V127.532H245.063C272.924 137.678 286.794 145.125 303.595 166.34C296.33 207.736 280.158 227.958 248.671 263.362C267.248 231.769 278.739 215.367 284.351 167.957C265.529 151.124 257.407 147.485 240.252 140.468L225.419 136.83Z" fill="black"/>
<path d="M225.419 151.787V137.234L243.86 142.894C258.375 151.47 266.546 158.964 281.144 175.234C260.421 236.924 246.93 256.593 217 286C238.776 248.494 255.068 218.762 261.099 175.234C252.84 165.729 248.299 162.213 240.252 157.043L225.419 151.787Z" fill="black"/>
<path d="M261.5 88.3192C257.796 52.0432 251.678 33.0651 233.437 1C243.581 11.5184 259.495 33.7447 266.712 48.7021C273.928 63.6596 277.295 77.5684 277.536 91.5532C261.073 105.628 253.145 109.049 239.05 115L225.419 126.319V106.106C239.553 103.313 247.446 98.8191 261.5 88.3192Z" fill="black"/>
<path d="M239.05 115L225.419 114.596V127.532H241.455C268.517 126.047 282.924 122.668 306 108.128C297.145 60.6363 275.785 40.7421 255.887 15.1489C274.025 45.9856 283.014 63.6018 286.757 98.4255C268.897 109.449 258.679 112.588 239.05 115Z" fill="black"/>
<path d="M225.419 127.532V136.83L240.252 140.468C257.407 147.485 265.529 151.124 284.351 167.957C278.739 215.367 267.248 231.769 248.671 263.362C280.158 227.958 296.33 207.736 303.595 166.34C286.794 145.125 272.924 137.678 245.063 127.532H225.419ZM225.419 127.532H241.455C268.517 126.047 282.924 122.668 306 108.128C297.145 60.6363 275.785 40.7421 255.887 15.1489C274.025 45.9856 283.014 63.6018 286.757 98.4255C268.897 109.449 258.679 112.588 239.05 115M225.419 127.532V114.596L239.05 115M239.05 115L225.419 126.319V106.106C239.553 103.313 247.446 98.8191 261.5 88.3192C257.796 52.0432 251.678 33.0651 233.437 1C243.581 11.5184 259.495 33.7447 266.712 48.7021C273.928 63.6596 277.295 77.5684 277.536 91.5532C261.073 105.628 253.145 109.049 239.05 115ZM225.419 137.234V151.787L240.252 157.043C248.299 162.213 252.84 165.729 261.099 175.234C255.068 218.762 238.776 248.494 217 286C246.93 256.593 260.421 236.924 281.144 175.234C266.546 158.964 258.375 151.47 243.86 142.894L225.419 137.234Z" stroke="black"/>
<path d="M150.663 39L82 53.0789V188.8L85.4048 197.247L101.861 216.395L127.964 239.484L151.798 253L151.23 185.421H133.071L133.639 221.463L111.508 200.063L99.5913 191.616V183.168V66.0316L133.071 59.8368L133.639 103.2H151.23L150.663 39Z" fill="white"/>
<path fill-rule="evenodd" clip-rule="evenodd" d="M155.202 39V253L172.794 241.737V141.495L206.841 146.563L209.111 213.579L225 188.8V53.0789L155.202 39ZM172.794 120.658V59.8368L206.841 66.0316V126.289L172.794 120.658Z" fill="white"/>
<path d="M191.52 233.853C191.272 234.019 191.058 234.164 190.874 234.288M82 53.0789L150.663 39L151.23 103.2H133.639L133.071 59.8368L99.5913 66.0316V183.168V191.616L111.508 200.063L133.639 221.463L133.071 185.421H151.23L151.798 253L127.964 239.484L101.861 216.395L85.4048 197.247L82 188.8V53.0789ZM155.202 39V253L172.794 241.737V141.495L206.841 146.563L209.111 213.579L225 188.8V53.0789L155.202 39ZM172.794 59.8368V120.658L206.841 126.289V66.0316L172.794 59.8368Z" stroke="white"/>
</svg>
